solid Exported from Blender-4.0.2
facet normal -1.000000 0.000000 0.000000
outer loop
vertex -4.090553 -2.949256 0.520183
vertex -4.090553 -2.949256 2.520184
vertex -4.090553 -0.949256 2.520184
endloop
endfacet
facet normal -1.000000 0.000000 0.000000
outer loop
vertex -4.090553 -2.949256 0.520183
vertex -4.090553 -0.949256 2.520184
vertex -4.090553 -0.949256 0.520183
endloop
endfacet
facet normal 0.000000 1.000000 0.000000
outer loop
vertex -4.090553 -0.949256 0.520183
vertex -4.090553 -0.949256 2.520184
vertex -2.090553 -0.949256 2.520184
endloop
endfacet
facet normal 0.000000 1.000000 0.000000
outer loop
vertex -4.090553 -0.949256 0.520183
vertex -2.090553 -0.949256 2.520184
vertex -2.090553 -0.949256 0.520183
endloop
endfacet
facet normal 1.000000 0.000000 0.000000
outer loop
vertex -2.090553 -0.949256 0.520183
vertex -2.090553 -0.949256 2.520184
vertex -2.090553 -2.949256 2.520184
endloop
endfacet
facet normal 1.000000 0.000000 0.000000
outer loop
vertex -2.090553 -0.949256 0.520183
vertex -2.090553 -2.949256 2.520184
vertex -2.090553 -2.949256 0.520183
endloop
endfacet
facet normal 0.000000 -1.000000 0.000000
outer loop
vertex -2.090553 -2.949256 0.520183
vertex -2.090553 -2.949256 2.520184
vertex -4.090553 -2.949256 2.520184
endloop
endfacet
facet normal 0.000000 -1.000000 0.000000
outer loop
vertex -2.090553 -2.949256 0.520183
vertex -4.090553 -2.949256 2.520184
vertex -4.090553 -2.949256 0.520183
endloop
endfacet
facet normal 0.000000 0.000000 -1.000000
outer loop
vertex -4.090553 -0.949256 0.520183
vertex -2.090553 -0.949256 0.520183
vertex -2.090553 -2.949256 0.520183
endloop
endfacet
facet normal 0.000000 0.000000 -1.000000
outer loop
vertex -4.090553 -0.949256 0.520183
vertex -2.090553 -2.949256 0.520183
vertex -4.090553 -2.949256 0.520183
endloop
endfacet
facet normal 0.000000 0.000000 1.000000
outer loop
vertex -2.090553 -0.949256 2.520184
vertex -4.090553 -0.949256 2.520184
vertex -4.090553 -2.949256 2.520184
endloop
endfacet
facet normal 0.000000 0.000000 1.000000
outer loop
vertex -2.090553 -0.949256 2.520184
vertex -4.090553 -2.949256 2.520184
vertex -2.090553 -2.949256 2.520184
endloop
endfacet
facet normal -1.000000 0.000000 0.000000
outer loop
vertex 1.311066 -1.299080 -0.593251
vertex 1.311066 -1.299080 1.406749
vertex 1.311066 0.700920 1.406749
endloop
endfacet
facet normal -1.000000 0.000000 0.000000
outer loop
vertex 1.311066 -1.299080 -0.593251
vertex 1.311066 0.700920 1.406749
vertex 1.311066 0.700920 -0.593251
endloop
endfacet
facet normal 0.000000 1.000000 0.000000
outer loop
vertex 1.311066 0.700920 -0.593251
vertex 1.311066 0.700920 1.406749
vertex 3.311066 0.700920 1.406749
endloop
endfacet
facet normal 0.000000 1.000000 0.000000
outer loop
vertex 1.311066 0.700920 -0.593251
vertex 3.311066 0.700920 1.406749
vertex 3.311066 0.700920 -0.593251
endloop
endfacet
facet normal 1.000000 0.000000 0.000000
outer loop
vertex 3.311066 0.700920 -0.593251
vertex 3.311066 0.700920 1.406749
vertex 3.311066 -1.299080 1.406749
endloop
endfacet
facet normal 1.000000 0.000000 0.000000
outer loop
vertex 3.311066 0.700920 -0.593251
vertex 3.311066 -1.299080 1.406749
vertex 3.311066 -1.299080 -0.593251
endloop
endfacet
facet normal 0.000000 -1.000000 0.000000
outer loop
vertex 3.311066 -1.299080 -0.593251
vertex 3.311066 -1.299080 1.406749
vertex 1.311066 -1.299080 1.406749
endloop
endfacet
facet normal 0.000000 -1.000000 0.000000
outer loop
vertex 3.311066 -1.299080 -0.593251
vertex 1.311066 -1.299080 1.406749
vertex 1.311066 -1.299080 -0.593251
endloop
endfacet
facet normal 0.000000 0.000000 -1.000000
outer loop
vertex 1.311066 0.700920 -0.593251
vertex 3.311066 0.700920 -0.593251
vertex 3.311066 -1.299080 -0.593251
endloop
endfacet
facet normal 0.000000 0.000000 -1.000000
outer loop
vertex 1.311066 0.700920 -0.593251
vertex 3.311066 -1.299080 -0.593251
vertex 1.311066 -1.299080 -0.593251
endloop
endfacet
facet normal 0.000000 0.000000 1.000000
outer loop
vertex 3.311066 0.700920 1.406749
vertex 1.311066 0.700920 1.406749
vertex 1.311066 -1.299080 1.406749
endloop
endfacet
facet normal 0.000000 0.000000 1.000000
outer loop
vertex 3.311066 0.700920 1.406749
vertex 1.311066 -1.299080 1.406749
vertex 3.311066 -1.299080 1.406749
endloop
endfacet
facet normal -1.000000 0.000000 0.000000
outer loop
vertex -1.290330 0.255477 0.728227
vertex -1.290330 0.255477 2.728227
vertex -1.290330 2.255477 2.728227
endloop
endfacet
facet normal -1.000000 0.000000 0.000000
outer loop
vertex -1.290330 0.255477 0.728227
vertex -1.290330 2.255477 2.728227
vertex -1.290330 2.255477 0.728227
endloop
endfacet
facet normal 0.000000 1.000000 0.000000
outer loop
vertex -1.290330 2.255477 0.728227
vertex -1.290330 2.255477 2.728227
vertex 0.709670 2.255477 2.728227
endloop
endfacet
facet normal 0.000000 1.000000 0.000000
outer loop
vertex -1.290330 2.255477 0.728227
vertex 0.709670 2.255477 2.728227
vertex 0.709670 2.255477 0.728227
endloop
endfacet
facet normal 1.000000 0.000000 0.000000
outer loop
vertex 0.709670 2.255477 0.728227
vertex 0.709670 2.255477 2.728227
vertex 0.709670 0.255477 2.728227
endloop
endfacet
facet normal 1.000000 0.000000 0.000000
outer loop
vertex 0.709670 2.255477 0.728227
vertex 0.709670 0.255477 2.728227
vertex 0.709670 0.255477 0.728227
endloop
endfacet
facet normal 0.000000 -1.000000 0.000000
outer loop
vertex 0.709670 0.255477 0.728227
vertex 0.709670 0.255477 2.728227
vertex -1.290330 0.255477 2.728227
endloop
endfacet
facet normal 0.000000 -1.000000 0.000000
outer loop
vertex 0.709670 0.255477 0.728227
vertex -1.290330 0.255477 2.728227
vertex -1.290330 0.255477 0.728227
endloop
endfacet
facet normal 0.000000 0.000000 -1.000000
outer loop
vertex -1.290330 2.255477 0.728227
vertex 0.709670 2.255477 0.728227
vertex 0.709670 0.255477 0.728227
endloop
endfacet
facet normal 0.000000 0.000000 -1.000000
outer loop
vertex -1.290330 2.255477 0.728227
vertex 0.709670 0.255477 0.728227
vertex -1.290330 0.255477 0.728227
endloop
endfacet
facet normal 0.000000 0.000000 1.000000
outer loop
vertex 0.709670 2.255477 2.728227
vertex -1.290330 2.255477 2.728227
vertex -1.290330 0.255477 2.728227
endloop
endfacet
facet normal 0.000000 0.000000 1.000000
outer loop
vertex 0.709670 2.255477 2.728227
vertex -1.290330 0.255477 2.728227
vertex 0.709670 0.255477 2.728227
endloop
endfacet
endsolid Exported from Blender-4.0.2
