solid Exported from Blender-4.0.2
facet normal 0.098017 0.995185 0.000000
outer loop
vertex 0.000000 1.000000 -1.586291
vertex 0.000000 1.000000 1.586291
vertex 0.195090 0.980785 1.586291
endloop
endfacet
facet normal 0.098017 0.995185 0.000000
outer loop
vertex 0.000000 1.000000 -1.586291
vertex 0.195090 0.980785 1.586291
vertex 0.195090 0.980785 -1.586291
endloop
endfacet
facet normal 0.290285 0.956940 0.000000
outer loop
vertex 0.195090 0.980785 -1.586291
vertex 0.195090 0.980785 1.586291
vertex 0.382683 0.923880 1.586291
endloop
endfacet
facet normal 0.290285 0.956940 0.000000
outer loop
vertex 0.195090 0.980785 -1.586291
vertex 0.382683 0.923880 1.586291
vertex 0.382683 0.923880 -1.586291
endloop
endfacet
facet normal 0.471397 0.881921 0.000000
outer loop
vertex 0.382683 0.923880 -1.586291
vertex 0.382683 0.923880 1.586291
vertex 0.555570 0.831470 1.586291
endloop
endfacet
facet normal 0.471397 0.881921 0.000000
outer loop
vertex 0.382683 0.923880 -1.586291
vertex 0.555570 0.831470 1.586291
vertex 0.555570 0.831470 -1.586291
endloop
endfacet
facet normal 0.634394 0.773010 0.000000
outer loop
vertex 0.555570 0.831470 -1.586291
vertex 0.555570 0.831470 1.586291
vertex 0.707107 0.707107 1.586291
endloop
endfacet
facet normal 0.634393 0.773011 0.000000
outer loop
vertex 0.555570 0.831470 -1.586291
vertex 0.707107 0.707107 1.586291
vertex 0.707107 0.707107 -1.586291
endloop
endfacet
facet normal 0.773010 0.634393 0.000000
outer loop
vertex 0.707107 0.707107 -1.586291
vertex 0.707107 0.707107 1.586291
vertex 0.831470 0.555570 1.586291
endloop
endfacet
facet normal 0.773010 0.634393 0.000000
outer loop
vertex 0.707107 0.707107 -1.586291
vertex 0.831470 0.555570 1.586291
vertex 0.831470 0.555570 -1.586291
endloop
endfacet
facet normal 0.881921 0.471397 0.000000
outer loop
vertex 0.831470 0.555570 -1.586291
vertex 0.831470 0.555570 1.586291
vertex 0.923880 0.382683 1.586291
endloop
endfacet
facet normal 0.881921 0.471397 0.000000
outer loop
vertex 0.831470 0.555570 -1.586291
vertex 0.923880 0.382683 1.586291
vertex 0.923880 0.382683 -1.586291
endloop
endfacet
facet normal 0.956940 0.290285 0.000000
outer loop
vertex 0.923880 0.382683 -1.586291
vertex 0.923880 0.382683 1.586291
vertex 0.980785 0.195090 1.586291
endloop
endfacet
facet normal 0.956940 0.290285 0.000000
outer loop
vertex 0.923880 0.382683 -1.586291
vertex 0.980785 0.195090 1.586291
vertex 0.980785 0.195090 -1.586291
endloop
endfacet
facet normal 0.995185 0.098017 0.000000
outer loop
vertex 0.980785 0.195090 -1.586291
vertex 0.980785 0.195090 1.586291
vertex 1.000000 0.000000 1.586291
endloop
endfacet
facet normal 0.995185 0.098017 0.000000
outer loop
vertex 0.980785 0.195090 -1.586291
vertex 1.000000 0.000000 1.586291
vertex 1.000000 0.000000 -1.586291
endloop
endfacet
facet normal 0.995185 -0.098017 0.000000
outer loop
vertex 1.000000 0.000000 -1.586291
vertex 1.000000 0.000000 1.586291
vertex 0.980785 -0.195090 1.586291
endloop
endfacet
facet normal 0.995185 -0.098017 0.000000
outer loop
vertex 1.000000 0.000000 -1.586291
vertex 0.980785 -0.195090 1.586291
vertex 0.980785 -0.195090 -1.586291
endloop
endfacet
facet normal 0.956940 -0.290285 0.000000
outer loop
vertex 0.980785 -0.195090 -1.586291
vertex 0.980785 -0.195090 1.586291
vertex 0.923880 -0.382683 1.586291
endloop
endfacet
facet normal 0.956940 -0.290285 0.000000
outer loop
vertex 0.980785 -0.195090 -1.586291
vertex 0.923880 -0.382683 1.586291
vertex 0.923880 -0.382683 -1.586291
endloop
endfacet
facet normal 0.881921 -0.471397 0.000000
outer loop
vertex 0.923880 -0.382683 -1.586291
vertex 0.923880 -0.382683 1.586291
vertex 0.831470 -0.555570 1.586291
endloop
endfacet
facet normal 0.881921 -0.471397 0.000000
outer loop
vertex 0.923880 -0.382683 -1.586291
vertex 0.831470 -0.555570 1.586291
vertex 0.831470 -0.555570 -1.586291
endloop
endfacet
facet normal 0.773010 -0.634393 0.000000
outer loop
vertex 0.831470 -0.555570 -1.586291
vertex 0.831470 -0.555570 1.586291
vertex 0.707107 -0.707107 1.586291
endloop
endfacet
facet normal 0.773010 -0.634393 0.000000
outer loop
vertex 0.831470 -0.555570 -1.586291
vertex 0.707107 -0.707107 1.586291
vertex 0.707107 -0.707107 -1.586291
endloop
endfacet
facet normal 0.634393 -0.773011 0.000000
outer loop
vertex 0.707107 -0.707107 -1.586291
vertex 0.707107 -0.707107 1.586291
vertex 0.555570 -0.831470 1.586291
endloop
endfacet
facet normal 0.634394 -0.773010 0.000000
outer loop
vertex 0.707107 -0.707107 -1.586291
vertex 0.555570 -0.831470 1.586291
vertex 0.555570 -0.831470 -1.586291
endloop
endfacet
facet normal 0.471397 -0.881921 0.000000
outer loop
vertex 0.555570 -0.831470 -1.586291
vertex 0.555570 -0.831470 1.586291
vertex 0.382683 -0.923880 1.586291
endloop
endfacet
facet normal 0.471397 -0.881921 0.000000
outer loop
vertex 0.555570 -0.831470 -1.586291
vertex 0.382683 -0.923880 1.586291
vertex 0.382683 -0.923880 -1.586291
endloop
endfacet
facet normal 0.290285 -0.956940 0.000000
outer loop
vertex 0.382683 -0.923880 -1.586291
vertex 0.382683 -0.923880 1.586291
vertex 0.195090 -0.980785 1.586291
endloop
endfacet
facet normal 0.290285 -0.956940 0.000000
outer loop
vertex 0.382683 -0.923880 -1.586291
vertex 0.195090 -0.980785 1.586291
vertex 0.195090 -0.980785 -1.586291
endloop
endfacet
facet normal 0.098017 -0.995185 0.000000
outer loop
vertex 0.195090 -0.980785 -1.586291
vertex 0.195090 -0.980785 1.586291
vertex 0.000000 -1.000000 1.586291
endloop
endfacet
facet normal 0.098017 -0.995185 0.000000
outer loop
vertex 0.195090 -0.980785 -1.586291
vertex 0.000000 -1.000000 1.586291
vertex 0.000000 -1.000000 -1.586291
endloop
endfacet
facet normal -0.098017 -0.995185 0.000000
outer loop
vertex 0.000000 -1.000000 -1.586291
vertex 0.000000 -1.000000 1.586291
vertex -0.195090 -0.980785 1.586291
endloop
endfacet
facet normal -0.098017 -0.995185 0.000000
outer loop
vertex 0.000000 -1.000000 -1.586291
vertex -0.195090 -0.980785 1.586291
vertex -0.195090 -0.980785 -1.586291
endloop
endfacet
facet normal -0.290285 -0.956940 0.000000
outer loop
vertex -0.195090 -0.980785 -1.586291
vertex -0.195090 -0.980785 1.586291
vertex -0.382683 -0.923880 1.586291
endloop
endfacet
facet normal -0.290285 -0.956940 0.000000
outer loop
vertex -0.195090 -0.980785 -1.586291
vertex -0.382683 -0.923880 1.586291
vertex -0.382683 -0.923880 -1.586291
endloop
endfacet
facet normal -0.471397 -0.881921 0.000000
outer loop
vertex -0.382683 -0.923880 -1.586291
vertex -0.382683 -0.923880 1.586291
vertex -0.555570 -0.831470 1.586291
endloop
endfacet
facet normal -0.471397 -0.881921 0.000000
outer loop
vertex -0.382683 -0.923880 -1.586291
vertex -0.555570 -0.831470 1.586291
vertex -0.555570 -0.831470 -1.586291
endloop
endfacet
facet normal -0.634394 -0.773010 0.000000
outer loop
vertex -0.555570 -0.831470 -1.586291
vertex -0.555570 -0.831470 1.586291
vertex -0.707107 -0.707107 1.586291
endloop
endfacet
facet normal -0.634393 -0.773011 0.000000
outer loop
vertex -0.555570 -0.831470 -1.586291
vertex -0.707107 -0.707107 1.586291
vertex -0.707107 -0.707107 -1.586291
endloop
endfacet
facet normal -0.773010 -0.634393 0.000000
outer loop
vertex -0.707107 -0.707107 -1.586291
vertex -0.707107 -0.707107 1.586291
vertex -0.831470 -0.555570 1.586291
endloop
endfacet
facet normal -0.773010 -0.634393 0.000000
outer loop
vertex -0.707107 -0.707107 -1.586291
vertex -0.831470 -0.555570 1.586291
vertex -0.831470 -0.555570 -1.586291
endloop
endfacet
facet normal -0.881921 -0.471397 0.000000
outer loop
vertex -0.831470 -0.555570 -1.586291
vertex -0.831470 -0.555570 1.586291
vertex -0.923880 -0.382683 1.586291
endloop
endfacet
facet normal -0.881921 -0.471397 0.000000
outer loop
vertex -0.831470 -0.555570 -1.586291
vertex -0.923880 -0.382683 1.586291
vertex -0.923880 -0.382683 -1.586291
endloop
endfacet
facet normal -0.956940 -0.290285 0.000000
outer loop
vertex -0.923880 -0.382683 -1.586291
vertex -0.923880 -0.382683 1.586291
vertex -0.980785 -0.195090 1.586291
endloop
endfacet
facet normal -0.956940 -0.290285 0.000000
outer loop
vertex -0.923880 -0.382683 -1.586291
vertex -0.980785 -0.195090 1.586291
vertex -0.980785 -0.195090 -1.586291
endloop
endfacet
facet normal -0.995185 -0.098017 0.000000
outer loop
vertex -0.980785 -0.195090 -1.586291
vertex -0.980785 -0.195090 1.586291
vertex -1.000000 0.000000 1.586291
endloop
endfacet
facet normal -0.995185 -0.098017 0.000000
outer loop
vertex -0.980785 -0.195090 -1.586291
vertex -1.000000 0.000000 1.586291
vertex -1.000000 0.000000 -1.586291
endloop
endfacet
facet normal -0.995185 0.098017 0.000000
outer loop
vertex -1.000000 0.000000 -1.586291
vertex -1.000000 0.000000 1.586291
vertex -0.980785 0.195090 1.586291
endloop
endfacet
facet normal -0.995185 0.098017 0.000000
outer loop
vertex -1.000000 0.000000 -1.586291
vertex -0.980785 0.195090 1.586291
vertex -0.980785 0.195090 -1.586291
endloop
endfacet
facet normal -0.956940 0.290285 0.000000
outer loop
vertex -0.980785 0.195090 -1.586291
vertex -0.980785 0.195090 1.586291
vertex -0.923880 0.382683 1.586291
endloop
endfacet
facet normal -0.956940 0.290285 0.000000
outer loop
vertex -0.980785 0.195090 -1.586291
vertex -0.923880 0.382683 1.586291
vertex -0.923880 0.382683 -1.586291
endloop
endfacet
facet normal -0.881921 0.471397 0.000000
outer loop
vertex -0.923880 0.382683 -1.586291
vertex -0.923880 0.382683 1.586291
vertex -0.831470 0.555570 1.586291
endloop
endfacet
facet normal -0.881921 0.471397 0.000000
outer loop
vertex -0.923880 0.382683 -1.586291
vertex -0.831470 0.555570 1.586291
vertex -0.831470 0.555570 -1.586291
endloop
endfacet
facet normal -0.773010 0.634393 0.000000
outer loop
vertex -0.831470 0.555570 -1.586291
vertex -0.831470 0.555570 1.586291
vertex -0.707107 0.707107 1.586291
endloop
endfacet
facet normal -0.773010 0.634393 0.000000
outer loop
vertex -0.831470 0.555570 -1.586291
vertex -0.707107 0.707107 1.586291
vertex -0.707107 0.707107 -1.586291
endloop
endfacet
facet normal -0.634393 0.773011 0.000000
outer loop
vertex -0.707107 0.707107 -1.586291
vertex -0.707107 0.707107 1.586291
vertex -0.555570 0.831470 1.586291
endloop
endfacet
facet normal -0.634394 0.773010 0.000000
outer loop
vertex -0.707107 0.707107 -1.586291
vertex -0.555570 0.831470 1.586291
vertex -0.555570 0.831470 -1.586291
endloop
endfacet
facet normal -0.471397 0.881921 0.000000
outer loop
vertex -0.555570 0.831470 -1.586291
vertex -0.555570 0.831470 1.586291
vertex -0.382683 0.923880 1.586291
endloop
endfacet
facet normal -0.471397 0.881921 0.000000
outer loop
vertex -0.555570 0.831470 -1.586291
vertex -0.382683 0.923880 1.586291
vertex -0.382683 0.923880 -1.586291
endloop
endfacet
facet normal -0.000000 0.000000 1.000000
outer loop
vertex 0.382683 0.923880 1.586291
vertex 0.195090 0.980785 1.586291
vertex 0.000000 1.000000 1.586291
endloop
endfacet
facet normal 0.000000 0.000000 1.000000
outer loop
vertex 0.000000 1.000000 1.586291
vertex -0.195090 0.980785 1.586291
vertex -0.382683 0.923880 1.586291
endloop
endfacet
facet normal -0.000004 0.000000 1.000000
outer loop
vertex -0.382683 0.923880 1.586291
vertex -0.555570 0.831470 1.586291
vertex -0.707107 0.707107 1.586291
endloop
endfacet
facet normal 0.000008 0.000000 1.000000
outer loop
vertex -0.707107 0.707107 1.586291
vertex -0.831470 0.555570 1.586291
vertex -0.923880 0.382683 1.586291
endloop
endfacet
facet normal 0.000000 0.000000 1.000000
outer loop
vertex -0.923880 0.382683 1.586291
vertex -0.980785 0.195090 1.586291
vertex -1.000000 0.000000 1.586291
endloop
endfacet
facet normal 0.000000 0.000000 1.000000
outer loop
vertex -1.000000 0.000000 1.586291
vertex -0.980785 -0.195090 1.586291
vertex -0.923880 -0.382683 1.586291
endloop
endfacet
facet normal 0.000008 0.000000 1.000000
outer loop
vertex -0.923880 -0.382683 1.586291
vertex -0.831470 -0.555570 1.586291
vertex -0.707107 -0.707107 1.586291
endloop
endfacet
facet normal -0.000004 0.000000 1.000000
outer loop
vertex -0.707107 -0.707107 1.586291
vertex -0.555570 -0.831470 1.586291
vertex -0.382683 -0.923880 1.586291
endloop
endfacet
facet normal 0.000000 0.000000 1.000000
outer loop
vertex -0.382683 -0.923880 1.586291
vertex -0.195090 -0.980785 1.586291
vertex 0.000000 -1.000000 1.586291
endloop
endfacet
facet normal 0.000000 0.000000 1.000000
outer loop
vertex 0.000000 -1.000000 1.586291
vertex 0.195090 -0.980785 1.586291
vertex 0.382683 -0.923880 1.586291
endloop
endfacet
facet normal 0.000004 0.000000 1.000000
outer loop
vertex 0.382683 -0.923880 1.586291
vertex 0.555570 -0.831470 1.586291
vertex 0.707107 -0.707107 1.586291
endloop
endfacet
facet normal -0.000008 0.000000 1.000000
outer loop
vertex 0.707107 -0.707107 1.586291
vertex 0.831470 -0.555570 1.586291
vertex 0.923880 -0.382683 1.586291
endloop
endfacet
facet normal 0.000000 0.000000 1.000000
outer loop
vertex 0.923880 -0.382683 1.586291
vertex 0.980785 -0.195090 1.586291
vertex 1.000000 0.000000 1.586291
endloop
endfacet
facet normal 0.000000 0.000000 1.000000
outer loop
vertex 1.000000 0.000000 1.586291
vertex 0.980785 0.195090 1.586291
vertex 0.923880 0.382683 1.586291
endloop
endfacet
facet normal -0.000008 0.000000 1.000000
outer loop
vertex 0.923880 0.382683 1.586291
vertex 0.831470 0.555570 1.586291
vertex 0.707107 0.707107 1.586291
endloop
endfacet
facet normal 0.000004 0.000000 1.000000
outer loop
vertex 0.707107 0.707107 1.586291
vertex 0.555570 0.831470 1.586291
vertex 0.382683 0.923880 1.586291
endloop
endfacet
facet normal 0.000000 0.000000 1.000000
outer loop
vertex 0.382683 0.923880 1.586291
vertex 0.000000 1.000000 1.586291
vertex -0.382683 0.923880 1.586291
endloop
endfacet
facet normal 0.000000 0.000000 1.000000
outer loop
vertex -0.382683 0.923880 1.586291
vertex -0.707107 0.707107 1.586291
vertex -0.923880 0.382683 1.586291
endloop
endfacet
facet normal 0.000000 0.000000 1.000000
outer loop
vertex -0.923880 0.382683 1.586291
vertex -1.000000 0.000000 1.586291
vertex -0.923880 -0.382683 1.586291
endloop
endfacet
facet normal 0.000000 0.000000 1.000000
outer loop
vertex -0.923880 -0.382683 1.586291
vertex -0.707107 -0.707107 1.586291
vertex -0.382683 -0.923880 1.586291
endloop
endfacet
facet normal 0.000000 0.000000 1.000000
outer loop
vertex -0.382683 -0.923880 1.586291
vertex 0.000000 -1.000000 1.586291
vertex 0.382683 -0.923880 1.586291
endloop
endfacet
facet normal 0.000000 0.000000 1.000000
outer loop
vertex 0.382683 -0.923880 1.586291
vertex 0.707107 -0.707107 1.586291
vertex 0.923880 -0.382683 1.586291
endloop
endfacet
facet normal 0.000000 0.000000 1.000000
outer loop
vertex 0.923880 -0.382683 1.586291
vertex 1.000000 0.000000 1.586291
vertex 0.923880 0.382683 1.586291
endloop
endfacet
facet normal 0.000000 0.000000 1.000000
outer loop
vertex 0.923880 0.382683 1.586291
vertex 0.707107 0.707107 1.586291
vertex 0.382683 0.923880 1.586291
endloop
endfacet
facet normal 0.000000 0.000000 1.000000
outer loop
vertex 0.382683 0.923880 1.586291
vertex -0.382683 0.923880 1.586291
vertex -0.923880 0.382683 1.586291
endloop
endfacet
facet normal 0.000000 0.000000 1.000000
outer loop
vertex -0.923880 0.382683 1.586291
vertex -0.923880 -0.382683 1.586291
vertex -0.382683 -0.923880 1.586291
endloop
endfacet
facet normal 0.000000 0.000000 1.000000
outer loop
vertex -0.382683 -0.923880 1.586291
vertex 0.382683 -0.923880 1.586291
vertex 0.923880 -0.382683 1.586291
endloop
endfacet
facet normal 0.000000 0.000000 1.000000
outer loop
vertex 0.923880 -0.382683 1.586291
vertex 0.923880 0.382683 1.586291
vertex 0.382683 0.923880 1.586291
endloop
endfacet
facet normal -0.000000 0.000000 1.000000
outer loop
vertex 0.382683 0.923880 1.586291
vertex -0.923880 0.382683 1.586291
vertex -0.382683 -0.923880 1.586291
endloop
endfacet
facet normal 0.000000 0.000000 1.000000
outer loop
vertex -0.382683 -0.923880 1.586291
vertex 0.923880 -0.382683 1.586291
vertex 0.382683 0.923880 1.586291
endloop
endfacet
facet normal -0.290285 0.956940 0.000000
outer loop
vertex -0.382683 0.923880 -1.586291
vertex -0.382683 0.923880 1.586291
vertex -0.195090 0.980785 1.586291
endloop
endfacet
facet normal -0.290285 0.956940 0.000000
outer loop
vertex -0.382683 0.923880 -1.586291
vertex -0.195090 0.980785 1.586291
vertex -0.195090 0.980785 -1.586291
endloop
endfacet
facet normal -0.098017 0.995185 0.000000
outer loop
vertex -0.195090 0.980785 -1.586291
vertex -0.195090 0.980785 1.586291
vertex 0.000000 1.000000 1.586291
endloop
endfacet
facet normal -0.098017 0.995185 0.000000
outer loop
vertex -0.195090 0.980785 -1.586291
vertex 0.000000 1.000000 1.586291
vertex 0.000000 1.000000 -1.586291
endloop
endfacet
facet normal 0.000000 0.000000 -1.000000
outer loop
vertex -0.195090 0.980785 -1.586291
vertex 0.000000 1.000000 -1.586291
vertex 0.195090 0.980785 -1.586291
endloop
endfacet
facet normal 0.000000 0.000000 -1.000000
outer loop
vertex 0.195090 0.980785 -1.586291
vertex 0.382683 0.923880 -1.586291
vertex 0.555570 0.831470 -1.586291
endloop
endfacet
facet normal 0.000004 0.000000 -1.000000
outer loop
vertex 0.555570 0.831470 -1.586291
vertex 0.707107 0.707107 -1.586291
vertex 0.831470 0.555570 -1.586291
endloop
endfacet
facet normal 0.000000 0.000000 -1.000000
outer loop
vertex 0.831470 0.555570 -1.586291
vertex 0.923880 0.382683 -1.586291
vertex 0.980785 0.195090 -1.586291
endloop
endfacet
facet normal 0.000000 0.000000 -1.000000
outer loop
vertex 0.980785 0.195090 -1.586291
vertex 1.000000 0.000000 -1.586291
vertex 0.980785 -0.195090 -1.586291
endloop
endfacet
facet normal 0.000000 0.000000 -1.000000
outer loop
vertex 0.980785 -0.195090 -1.586291
vertex 0.923880 -0.382683 -1.586291
vertex 0.831470 -0.555570 -1.586291
endloop
endfacet
facet normal 0.000004 0.000000 -1.000000
outer loop
vertex 0.831470 -0.555570 -1.586291
vertex 0.707107 -0.707107 -1.586291
vertex 0.555570 -0.831470 -1.586291
endloop
endfacet
facet normal 0.000002 0.000000 -1.000000
outer loop
vertex 0.555570 -0.831470 -1.586291
vertex 0.382683 -0.923880 -1.586291
vertex 0.195090 -0.980785 -1.586291
endloop
endfacet
facet normal 0.000000 0.000000 -1.000000
outer loop
vertex 0.195090 -0.980785 -1.586291
vertex 0.000000 -1.000000 -1.586291
vertex -0.195090 -0.980785 -1.586291
endloop
endfacet
facet normal 0.000000 0.000000 -1.000000
outer loop
vertex -0.195090 -0.980785 -1.586291
vertex -0.382683 -0.923880 -1.586291
vertex -0.555570 -0.831470 -1.586291
endloop
endfacet
facet normal -0.000004 0.000000 -1.000000
outer loop
vertex -0.555570 -0.831470 -1.586291
vertex -0.707107 -0.707107 -1.586291
vertex -0.831470 -0.555570 -1.586291
endloop
endfacet
facet normal 0.000000 0.000000 -1.000000
outer loop
vertex -0.831470 -0.555570 -1.586291
vertex -0.923880 -0.382683 -1.586291
vertex -0.980785 -0.195090 -1.586291
endloop
endfacet
facet normal 0.000000 0.000000 -1.000000
outer loop
vertex -0.980785 -0.195090 -1.586291
vertex -1.000000 0.000000 -1.586291
vertex -0.980785 0.195090 -1.586291
endloop
endfacet
facet normal 0.000000 0.000000 -1.000000
outer loop
vertex -0.980785 0.195090 -1.586291
vertex -0.923880 0.382683 -1.586291
vertex -0.831470 0.555570 -1.586291
endloop
endfacet
facet normal -0.000004 0.000000 -1.000000
outer loop
vertex -0.831470 0.555570 -1.586291
vertex -0.707107 0.707107 -1.586291
vertex -0.555570 0.831470 -1.586291
endloop
endfacet
facet normal -0.000002 0.000000 -1.000000
outer loop
vertex -0.555570 0.831470 -1.586291
vertex -0.382683 0.923880 -1.586291
vertex -0.195090 0.980785 -1.586291
endloop
endfacet
facet normal 0.000000 0.000000 -1.000000
outer loop
vertex -0.195090 0.980785 -1.586291
vertex 0.195090 0.980785 -1.586291
vertex 0.555570 0.831470 -1.586291
endloop
endfacet
facet normal 0.000000 0.000000 -1.000000
outer loop
vertex 0.555570 0.831470 -1.586291
vertex 0.831470 0.555570 -1.586291
vertex 0.980785 0.195090 -1.586291
endloop
endfacet
facet normal -0.000004 0.000000 -1.000000
outer loop
vertex 0.980785 0.195090 -1.586291
vertex 0.980785 -0.195090 -1.586291
vertex 0.831470 -0.555570 -1.586291
endloop
endfacet
facet normal 0.000001 0.000000 -1.000000
outer loop
vertex 0.831470 -0.555570 -1.586291
vertex 0.555570 -0.831470 -1.586291
vertex 0.195090 -0.980785 -1.586291
endloop
endfacet
facet normal 0.000000 0.000000 -1.000000
outer loop
vertex 0.195090 -0.980785 -1.586291
vertex -0.195090 -0.980785 -1.586291
vertex -0.555570 -0.831470 -1.586291
endloop
endfacet
facet normal 0.000000 0.000000 -1.000000
outer loop
vertex -0.555570 -0.831470 -1.586291
vertex -0.831470 -0.555570 -1.586291
vertex -0.980785 -0.195090 -1.586291
endloop
endfacet
facet normal 0.000004 0.000000 -1.000000
outer loop
vertex -0.980785 -0.195090 -1.586291
vertex -0.980785 0.195090 -1.586291
vertex -0.831470 0.555570 -1.586291
endloop
endfacet
facet normal -0.000001 0.000000 -1.000000
outer loop
vertex -0.831470 0.555570 -1.586291
vertex -0.555570 0.831470 -1.586291
vertex -0.195090 0.980785 -1.586291
endloop
endfacet
facet normal 0.000001 0.000000 -1.000000
outer loop
vertex -0.195090 0.980785 -1.586291
vertex 0.555570 0.831470 -1.586291
vertex 0.980785 0.195090 -1.586291
endloop
endfacet
facet normal 0.000000 0.000000 -1.000000
outer loop
vertex 0.980785 0.195090 -1.586291
vertex 0.831470 -0.555570 -1.586291
vertex 0.195090 -0.980785 -1.586291
endloop
endfacet
facet normal -0.000001 0.000000 -1.000000
outer loop
vertex 0.195090 -0.980785 -1.586291
vertex -0.555570 -0.831470 -1.586291
vertex -0.980785 -0.195090 -1.586291
endloop
endfacet
facet normal -0.000000 0.000000 -1.000000
outer loop
vertex -0.980785 -0.195090 -1.586291
vertex -0.831470 0.555570 -1.586291
vertex -0.195090 0.980785 -1.586291
endloop
endfacet
facet normal 0.000000 0.000000 -1.000000
outer loop
vertex -0.195090 0.980785 -1.586291
vertex 0.980785 0.195090 -1.586291
vertex 0.195090 -0.980785 -1.586291
endloop
endfacet
facet normal 0.000000 0.000000 -1.000000
outer loop
vertex 0.195090 -0.980785 -1.586291
vertex -0.980785 -0.195090 -1.586291
vertex -0.195090 0.980785 -1.586291
endloop
endfacet
facet normal 0.098017 0.995185 0.000000
outer loop
vertex -3.412605 1.000000 -1.000000
vertex -3.412605 1.000000 1.000000
vertex -3.217514 0.980785 1.000000
endloop
endfacet
facet normal 0.098017 0.995185 0.000000
outer loop
vertex -3.412605 1.000000 -1.000000
vertex -3.217514 0.980785 1.000000
vertex -3.217514 0.980785 -1.000000
endloop
endfacet
facet normal 0.290285 0.956940 0.000000
outer loop
vertex -3.217514 0.980785 -1.000000
vertex -3.217514 0.980785 1.000000
vertex -3.029921 0.923880 1.000000
endloop
endfacet
facet normal 0.290284 0.956941 0.000000
outer loop
vertex -3.217514 0.980785 -1.000000
vertex -3.029921 0.923880 1.000000
vertex -3.029921 0.923880 -1.000000
endloop
endfacet
facet normal 0.471397 0.881921 0.000000
outer loop
vertex -3.029921 0.923880 -1.000000
vertex -3.029921 0.923880 1.000000
vertex -2.857034 0.831470 1.000000
endloop
endfacet
facet normal 0.471397 0.881921 0.000000
outer loop
vertex -3.029921 0.923880 -1.000000
vertex -2.857034 0.831470 1.000000
vertex -2.857034 0.831470 -1.000000
endloop
endfacet
facet normal 0.634394 0.773010 0.000000
outer loop
vertex -2.857034 0.831470 -1.000000
vertex -2.857034 0.831470 1.000000
vertex -2.705498 0.707107 1.000000
endloop
endfacet
facet normal 0.634394 0.773010 0.000000
outer loop
vertex -2.857034 0.831470 -1.000000
vertex -2.705498 0.707107 1.000000
vertex -2.705498 0.707107 -1.000000
endloop
endfacet
facet normal 0.773010 0.634394 0.000000
outer loop
vertex -2.705498 0.707107 -1.000000
vertex -2.705498 0.707107 1.000000
vertex -2.581135 0.555570 1.000000
endloop
endfacet
facet normal 0.773011 0.634392 0.000000
outer loop
vertex -2.705498 0.707107 -1.000000
vertex -2.581135 0.555570 1.000000
vertex -2.581135 0.555570 -1.000000
endloop
endfacet
facet normal 0.881922 0.471396 0.000000
outer loop
vertex -2.581135 0.555570 -1.000000
vertex -2.581135 0.555570 1.000000
vertex -2.488725 0.382683 1.000000
endloop
endfacet
facet normal 0.881921 0.471397 0.000000
outer loop
vertex -2.581135 0.555570 -1.000000
vertex -2.488725 0.382683 1.000000
vertex -2.488725 0.382683 -1.000000
endloop
endfacet
facet normal 0.956940 0.290285 0.000000
outer loop
vertex -2.488725 0.382683 -1.000000
vertex -2.488725 0.382683 1.000000
vertex -2.431819 0.195090 1.000000
endloop
endfacet
facet normal 0.956940 0.290285 0.000000
outer loop
vertex -2.488725 0.382683 -1.000000
vertex -2.431819 0.195090 1.000000
vertex -2.431819 0.195090 -1.000000
endloop
endfacet
facet normal 0.995185 0.098017 0.000000
outer loop
vertex -2.431819 0.195090 -1.000000
vertex -2.431819 0.195090 1.000000
vertex -2.412605 0.000000 1.000000
endloop
endfacet
facet normal 0.995185 0.098019 0.000000
outer loop
vertex -2.431819 0.195090 -1.000000
vertex -2.412605 0.000000 1.000000
vertex -2.412605 0.000000 -1.000000
endloop
endfacet
facet normal 0.995185 -0.098019 0.000000
outer loop
vertex -2.412605 0.000000 -1.000000
vertex -2.412605 0.000000 1.000000
vertex -2.431819 -0.195090 1.000000
endloop
endfacet
facet normal 0.995185 -0.098017 0.000000
outer loop
vertex -2.412605 0.000000 -1.000000
vertex -2.431819 -0.195090 1.000000
vertex -2.431819 -0.195090 -1.000000
endloop
endfacet
facet normal 0.956940 -0.290285 0.000000
outer loop
vertex -2.431819 -0.195090 -1.000000
vertex -2.431819 -0.195090 1.000000
vertex -2.488725 -0.382683 1.000000
endloop
endfacet
facet normal 0.956940 -0.290285 0.000000
outer loop
vertex -2.431819 -0.195090 -1.000000
vertex -2.488725 -0.382683 1.000000
vertex -2.488725 -0.382683 -1.000000
endloop
endfacet
facet normal 0.881921 -0.471397 0.000000
outer loop
vertex -2.488725 -0.382683 -1.000000
vertex -2.488725 -0.382683 1.000000
vertex -2.581135 -0.555570 1.000000
endloop
endfacet
facet normal 0.881922 -0.471396 0.000000
outer loop
vertex -2.488725 -0.382683 -1.000000
vertex -2.581135 -0.555570 1.000000
vertex -2.581135 -0.555570 -1.000000
endloop
endfacet
facet normal 0.773011 -0.634392 0.000000
outer loop
vertex -2.581135 -0.555570 -1.000000
vertex -2.581135 -0.555570 1.000000
vertex -2.705498 -0.707107 1.000000
endloop
endfacet
facet normal 0.773010 -0.634394 0.000000
outer loop
vertex -2.581135 -0.555570 -1.000000
vertex -2.705498 -0.707107 1.000000
vertex -2.705498 -0.707107 -1.000000
endloop
endfacet
facet normal 0.634394 -0.773010 0.000000
outer loop
vertex -2.705498 -0.707107 -1.000000
vertex -2.705498 -0.707107 1.000000
vertex -2.857034 -0.831470 1.000000
endloop
endfacet
facet normal 0.634394 -0.773010 0.000000
outer loop
vertex -2.705498 -0.707107 -1.000000
vertex -2.857034 -0.831470 1.000000
vertex -2.857034 -0.831470 -1.000000
endloop
endfacet
facet normal 0.471397 -0.881921 0.000000
outer loop
vertex -2.857034 -0.831470 -1.000000
vertex -2.857034 -0.831470 1.000000
vertex -3.029921 -0.923880 1.000000
endloop
endfacet
facet normal 0.471397 -0.881921 0.000000
outer loop
vertex -2.857034 -0.831470 -1.000000
vertex -3.029921 -0.923880 1.000000
vertex -3.029921 -0.923880 -1.000000
endloop
endfacet
facet normal 0.290284 -0.956941 0.000000
outer loop
vertex -3.029921 -0.923880 -1.000000
vertex -3.029921 -0.923880 1.000000
vertex -3.217514 -0.980785 1.000000
endloop
endfacet
facet normal 0.290285 -0.956940 0.000000
outer loop
vertex -3.029921 -0.923880 -1.000000
vertex -3.217514 -0.980785 1.000000
vertex -3.217514 -0.980785 -1.000000
endloop
endfacet
facet normal 0.098017 -0.995185 0.000000
outer loop
vertex -3.217514 -0.980785 -1.000000
vertex -3.217514 -0.980785 1.000000
vertex -3.412605 -1.000000 1.000000
endloop
endfacet
facet normal 0.098017 -0.995185 0.000000
outer loop
vertex -3.217514 -0.980785 -1.000000
vertex -3.412605 -1.000000 1.000000
vertex -3.412605 -1.000000 -1.000000
endloop
endfacet
facet normal -0.098017 -0.995185 0.000000
outer loop
vertex -3.412605 -1.000000 -1.000000
vertex -3.412605 -1.000000 1.000000
vertex -3.607695 -0.980785 1.000000
endloop
endfacet
facet normal -0.098017 -0.995185 0.000000
outer loop
vertex -3.412605 -1.000000 -1.000000
vertex -3.607695 -0.980785 1.000000
vertex -3.607695 -0.980785 -1.000000
endloop
endfacet
facet normal -0.290285 -0.956940 0.000000
outer loop
vertex -3.607695 -0.980785 -1.000000
vertex -3.607695 -0.980785 1.000000
vertex -3.795288 -0.923880 1.000000
endloop
endfacet
facet normal -0.290284 -0.956941 0.000000
outer loop
vertex -3.607695 -0.980785 -1.000000
vertex -3.795288 -0.923880 1.000000
vertex -3.795288 -0.923880 -1.000000
endloop
endfacet
facet normal -0.471397 -0.881921 0.000000
outer loop
vertex -3.795288 -0.923880 -1.000000
vertex -3.795288 -0.923880 1.000000
vertex -3.968175 -0.831470 1.000000
endloop
endfacet
facet normal -0.471397 -0.881921 0.000000
outer loop
vertex -3.795288 -0.923880 -1.000000
vertex -3.968175 -0.831470 1.000000
vertex -3.968175 -0.831470 -1.000000
endloop
endfacet
facet normal -0.634392 -0.773011 0.000000
outer loop
vertex -3.968175 -0.831470 -1.000000
vertex -3.968175 -0.831470 1.000000
vertex -4.119711 -0.707107 1.000000
endloop
endfacet
facet normal -0.634395 -0.773009 0.000000
outer loop
vertex -3.968175 -0.831470 -1.000000
vertex -4.119711 -0.707107 1.000000
vertex -4.119711 -0.707107 -1.000000
endloop
endfacet
facet normal -0.773010 -0.634394 0.000000
outer loop
vertex -4.119711 -0.707107 -1.000000
vertex -4.119711 -0.707107 1.000000
vertex -4.244074 -0.555570 1.000000
endloop
endfacet
facet normal -0.773010 -0.634394 0.000000
outer loop
vertex -4.119711 -0.707107 -1.000000
vertex -4.244074 -0.555570 1.000000
vertex -4.244074 -0.555570 -1.000000
endloop
endfacet
facet normal -0.881921 -0.471397 0.000000
outer loop
vertex -4.244074 -0.555570 -1.000000
vertex -4.244074 -0.555570 1.000000
vertex -4.336484 -0.382683 1.000000
endloop
endfacet
facet normal -0.881923 -0.471394 0.000000
outer loop
vertex -4.244074 -0.555570 -1.000000
vertex -4.336484 -0.382683 1.000000
vertex -4.336484 -0.382683 -1.000000
endloop
endfacet
facet normal -0.956940 -0.290285 0.000000
outer loop
vertex -4.336484 -0.382683 -1.000000
vertex -4.336484 -0.382683 1.000000
vertex -4.393390 -0.195090 1.000000
endloop
endfacet
facet normal -0.956940 -0.290285 0.000000
outer loop
vertex -4.336484 -0.382683 -1.000000
vertex -4.393390 -0.195090 1.000000
vertex -4.393390 -0.195090 -1.000000
endloop
endfacet
facet normal -0.995185 -0.098017 0.000000
outer loop
vertex -4.393390 -0.195090 -1.000000
vertex -4.393390 -0.195090 1.000000
vertex -4.412604 0.000000 1.000000
endloop
endfacet
facet normal -0.995185 -0.098017 0.000000
outer loop
vertex -4.393390 -0.195090 -1.000000
vertex -4.412604 0.000000 1.000000
vertex -4.412604 0.000000 -1.000000
endloop
endfacet
facet normal -0.995185 0.098017 0.000000
outer loop
vertex -4.412604 0.000000 -1.000000
vertex -4.412604 0.000000 1.000000
vertex -4.393390 0.195090 1.000000
endloop
endfacet
facet normal -0.995185 0.098017 0.000000
outer loop
vertex -4.412604 0.000000 -1.000000
vertex -4.393390 0.195090 1.000000
vertex -4.393390 0.195090 -1.000000
endloop
endfacet
facet normal -0.956940 0.290285 0.000000
outer loop
vertex -4.393390 0.195090 -1.000000
vertex -4.393390 0.195090 1.000000
vertex -4.336484 0.382683 1.000000
endloop
endfacet
facet normal -0.956940 0.290285 0.000000
outer loop
vertex -4.393390 0.195090 -1.000000
vertex -4.336484 0.382683 1.000000
vertex -4.336484 0.382683 -1.000000
endloop
endfacet
facet normal -0.881923 0.471394 0.000000
outer loop
vertex -4.336484 0.382683 -1.000000
vertex -4.336484 0.382683 1.000000
vertex -4.244074 0.555570 1.000000
endloop
endfacet
facet normal -0.881921 0.471397 0.000000
outer loop
vertex -4.336484 0.382683 -1.000000
vertex -4.244074 0.555570 1.000000
vertex -4.244074 0.555570 -1.000000
endloop
endfacet
facet normal -0.773010 0.634394 0.000000
outer loop
vertex -4.244074 0.555570 -1.000000
vertex -4.244074 0.555570 1.000000
vertex -4.119711 0.707107 1.000000
endloop
endfacet
facet normal -0.773010 0.634394 0.000000
outer loop
vertex -4.244074 0.555570 -1.000000
vertex -4.119711 0.707107 1.000000
vertex -4.119711 0.707107 -1.000000
endloop
endfacet
facet normal -0.634395 0.773009 0.000000
outer loop
vertex -4.119711 0.707107 -1.000000
vertex -4.119711 0.707107 1.000000
vertex -3.968175 0.831470 1.000000
endloop
endfacet
facet normal -0.634392 0.773011 0.000000
outer loop
vertex -4.119711 0.707107 -1.000000
vertex -3.968175 0.831470 1.000000
vertex -3.968175 0.831470 -1.000000
endloop
endfacet
facet normal -0.471397 0.881921 0.000000
outer loop
vertex -3.968175 0.831470 -1.000000
vertex -3.968175 0.831470 1.000000
vertex -3.795288 0.923880 1.000000
endloop
endfacet
facet normal -0.471397 0.881921 0.000000
outer loop
vertex -3.968175 0.831470 -1.000000
vertex -3.795288 0.923880 1.000000
vertex -3.795288 0.923880 -1.000000
endloop
endfacet
facet normal 0.000000 0.000000 1.000000
outer loop
vertex -3.029921 0.923880 1.000000
vertex -3.217514 0.980785 1.000000
vertex -3.412605 1.000000 1.000000
endloop
endfacet
facet normal 0.000000 0.000000 1.000000
outer loop
vertex -3.412605 1.000000 1.000000
vertex -3.607695 0.980785 1.000000
vertex -3.795288 0.923880 1.000000
endloop
endfacet
facet normal 0.000000 0.000000 1.000000
outer loop
vertex -3.795288 0.923880 1.000000
vertex -3.968175 0.831470 1.000000
vertex -4.119711 0.707107 1.000000
endloop
endfacet
facet normal 0.000000 0.000000 1.000000
outer loop
vertex -4.119711 0.707107 1.000000
vertex -4.244074 0.555570 1.000000
vertex -4.336484 0.382683 1.000000
endloop
endfacet
facet normal 0.000000 0.000000 1.000000
outer loop
vertex -4.336484 0.382683 1.000000
vertex -4.393390 0.195090 1.000000
vertex -4.412604 0.000000 1.000000
endloop
endfacet
facet normal 0.000000 0.000000 1.000000
outer loop
vertex -4.412604 0.000000 1.000000
vertex -4.393390 -0.195090 1.000000
vertex -4.336484 -0.382683 1.000000
endloop
endfacet
facet normal 0.000000 0.000000 1.000000
outer loop
vertex -4.336484 -0.382683 1.000000
vertex -4.244074 -0.555570 1.000000
vertex -4.119711 -0.707107 1.000000
endloop
endfacet
facet normal 0.000000 0.000000 1.000000
outer loop
vertex -4.119711 -0.707107 1.000000
vertex -3.968175 -0.831470 1.000000
vertex -3.795288 -0.923880 1.000000
endloop
endfacet
facet normal 0.000000 0.000000 1.000000
outer loop
vertex -3.795288 -0.923880 1.000000
vertex -3.607695 -0.980785 1.000000
vertex -3.412605 -1.000000 1.000000
endloop
endfacet
facet normal 0.000000 0.000000 1.000000
outer loop
vertex -3.412605 -1.000000 1.000000
vertex -3.217514 -0.980785 1.000000
vertex -3.029921 -0.923880 1.000000
endloop
endfacet
facet normal 0.000000 0.000000 1.000000
outer loop
vertex -3.029921 -0.923880 1.000000
vertex -2.857034 -0.831470 1.000000
vertex -2.705498 -0.707107 1.000000
endloop
endfacet
facet normal 0.000000 0.000000 1.000000
outer loop
vertex -2.705498 -0.707107 1.000000
vertex -2.581135 -0.555570 1.000000
vertex -2.488725 -0.382683 1.000000
endloop
endfacet
facet normal 0.000000 0.000000 1.000000
outer loop
vertex -2.488725 -0.382683 1.000000
vertex -2.431819 -0.195090 1.000000
vertex -2.412605 0.000000 1.000000
endloop
endfacet
facet normal 0.000000 0.000000 1.000000
outer loop
vertex -2.412605 0.000000 1.000000
vertex -2.431819 0.195090 1.000000
vertex -2.488725 0.382683 1.000000
endloop
endfacet
facet normal 0.000000 0.000000 1.000000
outer loop
vertex -2.488725 0.382683 1.000000
vertex -2.581135 0.555570 1.000000
vertex -2.705498 0.707107 1.000000
endloop
endfacet
facet normal 0.000000 0.000000 1.000000
outer loop
vertex -2.705498 0.707107 1.000000
vertex -2.857034 0.831470 1.000000
vertex -3.029921 0.923880 1.000000
endloop
endfacet
facet normal 0.000000 0.000000 1.000000
outer loop
vertex -3.029921 0.923880 1.000000
vertex -3.412605 1.000000 1.000000
vertex -3.795288 0.923880 1.000000
endloop
endfacet
facet normal 0.000000 0.000000 1.000000
outer loop
vertex -3.795288 0.923880 1.000000
vertex -4.119711 0.707107 1.000000
vertex -4.336484 0.382683 1.000000
endloop
endfacet
facet normal 0.000000 0.000000 1.000000
outer loop
vertex -4.336484 0.382683 1.000000
vertex -4.412604 0.000000 1.000000
vertex -4.336484 -0.382683 1.000000
endloop
endfacet
facet normal 0.000000 0.000000 1.000000
outer loop
vertex -4.336484 -0.382683 1.000000
vertex -4.119711 -0.707107 1.000000
vertex -3.795288 -0.923880 1.000000
endloop
endfacet
facet normal 0.000000 0.000000 1.000000
outer loop
vertex -3.795288 -0.923880 1.000000
vertex -3.412605 -1.000000 1.000000
vertex -3.029921 -0.923880 1.000000
endloop
endfacet
facet normal 0.000000 0.000000 1.000000
outer loop
vertex -3.029921 -0.923880 1.000000
vertex -2.705498 -0.707107 1.000000
vertex -2.488725 -0.382683 1.000000
endloop
endfacet
facet normal 0.000000 0.000000 1.000000
outer loop
vertex -2.488725 -0.382683 1.000000
vertex -2.412605 0.000000 1.000000
vertex -2.488725 0.382683 1.000000
endloop
endfacet
facet normal 0.000000 0.000000 1.000000
outer loop
vertex -2.488725 0.382683 1.000000
vertex -2.705498 0.707107 1.000000
vertex -3.029921 0.923880 1.000000
endloop
endfacet
facet normal 0.000000 0.000000 1.000000
outer loop
vertex -3.029921 0.923880 1.000000
vertex -3.795288 0.923880 1.000000
vertex -4.336484 0.382683 1.000000
endloop
endfacet
facet normal 0.000000 0.000000 1.000000
outer loop
vertex -4.336484 0.382683 1.000000
vertex -4.336484 -0.382683 1.000000
vertex -3.795288 -0.923880 1.000000
endloop
endfacet
facet normal 0.000000 0.000000 1.000000
outer loop
vertex -3.795288 -0.923880 1.000000
vertex -3.029921 -0.923880 1.000000
vertex -2.488725 -0.382683 1.000000
endloop
endfacet
facet normal -0.000000 0.000000 1.000000
outer loop
vertex -2.488725 -0.382683 1.000000
vertex -2.488725 0.382683 1.000000
vertex -3.029921 0.923880 1.000000
endloop
endfacet
facet normal 0.000000 0.000000 1.000000
outer loop
vertex -3.029921 0.923880 1.000000
vertex -4.336484 0.382683 1.000000
vertex -3.795288 -0.923880 1.000000
endloop
endfacet
facet normal 0.000000 0.000000 1.000000
outer loop
vertex -3.795288 -0.923880 1.000000
vertex -2.488725 -0.382683 1.000000
vertex -3.029921 0.923880 1.000000
endloop
endfacet
facet normal -0.290284 0.956941 0.000000
outer loop
vertex -3.795288 0.923880 -1.000000
vertex -3.795288 0.923880 1.000000
vertex -3.607695 0.980785 1.000000
endloop
endfacet
facet normal -0.290285 0.956940 0.000000
outer loop
vertex -3.795288 0.923880 -1.000000
vertex -3.607695 0.980785 1.000000
vertex -3.607695 0.980785 -1.000000
endloop
endfacet
facet normal -0.098017 0.995185 0.000000
outer loop
vertex -3.607695 0.980785 -1.000000
vertex -3.607695 0.980785 1.000000
vertex -3.412605 1.000000 1.000000
endloop
endfacet
facet normal -0.098017 0.995185 0.000000
outer loop
vertex -3.607695 0.980785 -1.000000
vertex -3.412605 1.000000 1.000000
vertex -3.412605 1.000000 -1.000000
endloop
endfacet
facet normal 0.000000 0.000000 -1.000000
outer loop
vertex -3.607695 0.980785 -1.000000
vertex -3.412605 1.000000 -1.000000
vertex -3.217514 0.980785 -1.000000
endloop
endfacet
facet normal 0.000000 0.000000 -1.000000
outer loop
vertex -3.217514 0.980785 -1.000000
vertex -3.029921 0.923880 -1.000000
vertex -2.857034 0.831470 -1.000000
endloop
endfacet
facet normal 0.000000 0.000000 -1.000000
outer loop
vertex -2.857034 0.831470 -1.000000
vertex -2.705498 0.707107 -1.000000
vertex -2.581135 0.555570 -1.000000
endloop
endfacet
facet normal 0.000000 0.000000 -1.000000
outer loop
vertex -2.581135 0.555570 -1.000000
vertex -2.488725 0.382683 -1.000000
vertex -2.431819 0.195090 -1.000000
endloop
endfacet
facet normal 0.000000 0.000000 -1.000000
outer loop
vertex -2.431819 0.195090 -1.000000
vertex -2.412605 0.000000 -1.000000
vertex -2.431819 -0.195090 -1.000000
endloop
endfacet
facet normal 0.000000 0.000000 -1.000000
outer loop
vertex -2.431819 -0.195090 -1.000000
vertex -2.488725 -0.382683 -1.000000
vertex -2.581135 -0.555570 -1.000000
endloop
endfacet
facet normal 0.000000 0.000000 -1.000000
outer loop
vertex -2.581135 -0.555570 -1.000000
vertex -2.705498 -0.707107 -1.000000
vertex -2.857034 -0.831470 -1.000000
endloop
endfacet
facet normal 0.000000 0.000000 -1.000000
outer loop
vertex -2.857034 -0.831470 -1.000000
vertex -3.029921 -0.923880 -1.000000
vertex -3.217514 -0.980785 -1.000000
endloop
endfacet
facet normal 0.000000 0.000000 -1.000000
outer loop
vertex -3.217514 -0.980785 -1.000000
vertex -3.412605 -1.000000 -1.000000
vertex -3.607695 -0.980785 -1.000000
endloop
endfacet
facet normal 0.000000 0.000000 -1.000000
outer loop
vertex -3.607695 -0.980785 -1.000000
vertex -3.795288 -0.923880 -1.000000
vertex -3.968175 -0.831470 -1.000000
endloop
endfacet
facet normal 0.000000 0.000000 -1.000000
outer loop
vertex -3.968175 -0.831470 -1.000000
vertex -4.119711 -0.707107 -1.000000
vertex -4.244074 -0.555570 -1.000000
endloop
endfacet
facet normal 0.000000 0.000000 -1.000000
outer loop
vertex -4.244074 -0.555570 -1.000000
vertex -4.336484 -0.382683 -1.000000
vertex -4.393390 -0.195090 -1.000000
endloop
endfacet
facet normal 0.000000 0.000000 -1.000000
outer loop
vertex -4.393390 -0.195090 -1.000000
vertex -4.412604 0.000000 -1.000000
vertex -4.393390 0.195090 -1.000000
endloop
endfacet
facet normal 0.000000 0.000000 -1.000000
outer loop
vertex -4.393390 0.195090 -1.000000
vertex -4.336484 0.382683 -1.000000
vertex -4.244074 0.555570 -1.000000
endloop
endfacet
facet normal 0.000000 0.000000 -1.000000
outer loop
vertex -4.244074 0.555570 -1.000000
vertex -4.119711 0.707107 -1.000000
vertex -3.968175 0.831470 -1.000000
endloop
endfacet
facet normal 0.000000 0.000000 -1.000000
outer loop
vertex -3.968175 0.831470 -1.000000
vertex -3.795288 0.923880 -1.000000
vertex -3.607695 0.980785 -1.000000
endloop
endfacet
facet normal 0.000000 0.000000 -1.000000
outer loop
vertex -3.607695 0.980785 -1.000000
vertex -3.217514 0.980785 -1.000000
vertex -2.857034 0.831470 -1.000000
endloop
endfacet
facet normal -0.000001 0.000000 -1.000000
outer loop
vertex -2.857034 0.831470 -1.000000
vertex -2.581135 0.555570 -1.000000
vertex -2.431819 0.195090 -1.000000
endloop
endfacet
facet normal -0.000001 0.000000 -1.000000
outer loop
vertex -2.431819 0.195090 -1.000000
vertex -2.431819 -0.195090 -1.000000
vertex -2.581135 -0.555570 -1.000000
endloop
endfacet
facet normal 0.000000 0.000000 -1.000000
outer loop
vertex -2.581135 -0.555570 -1.000000
vertex -2.857034 -0.831470 -1.000000
vertex -3.217514 -0.980785 -1.000000
endloop
endfacet
facet normal 0.000000 0.000000 -1.000000
outer loop
vertex -3.217514 -0.980785 -1.000000
vertex -3.607695 -0.980785 -1.000000
vertex -3.968175 -0.831470 -1.000000
endloop
endfacet
facet normal 0.000001 0.000000 -1.000000
outer loop
vertex -3.968175 -0.831470 -1.000000
vertex -4.244074 -0.555570 -1.000000
vertex -4.393390 -0.195090 -1.000000
endloop
endfacet
facet normal 0.000001 0.000000 -1.000000
outer loop
vertex -4.393390 -0.195090 -1.000000
vertex -4.393390 0.195090 -1.000000
vertex -4.244074 0.555570 -1.000000
endloop
endfacet
facet normal 0.000000 0.000000 -1.000000
outer loop
vertex -4.244074 0.555570 -1.000000
vertex -3.968175 0.831470 -1.000000
vertex -3.607695 0.980785 -1.000000
endloop
endfacet
facet normal 0.000000 0.000000 -1.000000
outer loop
vertex -3.607695 0.980785 -1.000000
vertex -2.857034 0.831470 -1.000000
vertex -2.431819 0.195090 -1.000000
endloop
endfacet
facet normal 0.000000 0.000000 -1.000000
outer loop
vertex -2.431819 0.195090 -1.000000
vertex -2.581135 -0.555570 -1.000000
vertex -3.217514 -0.980785 -1.000000
endloop
endfacet
facet normal -0.000000 0.000000 -1.000000
outer loop
vertex -3.217514 -0.980785 -1.000000
vertex -3.968175 -0.831470 -1.000000
vertex -4.393390 -0.195090 -1.000000
endloop
endfacet
facet normal 0.000000 0.000000 -1.000000
outer loop
vertex -4.393390 -0.195090 -1.000000
vertex -4.244074 0.555570 -1.000000
vertex -3.607695 0.980785 -1.000000
endloop
endfacet
facet normal 0.000000 0.000000 -1.000000
outer loop
vertex -3.607695 0.980785 -1.000000
vertex -2.431819 0.195090 -1.000000
vertex -3.217514 -0.980785 -1.000000
endloop
endfacet
facet normal 0.000000 0.000000 -1.000000
outer loop
vertex -3.217514 -0.980785 -1.000000
vertex -4.393390 -0.195090 -1.000000
vertex -3.607695 0.980785 -1.000000
endloop
endfacet
facet normal 0.098019 0.995185 0.000000
outer loop
vertex -0.036303 4.654503 -1.000000
vertex -0.036303 4.654503 1.000000
vertex 0.158787 4.635288 1.000000
endloop
endfacet
facet normal 0.098019 0.995185 0.000000
outer loop
vertex -0.036303 4.654503 -1.000000
vertex 0.158787 4.635288 1.000000
vertex 0.158787 4.635288 -1.000000
endloop
endfacet
facet normal 0.290285 0.956940 0.000000
outer loop
vertex 0.158787 4.635288 -1.000000
vertex 0.158787 4.635288 1.000000
vertex 0.346380 4.578382 1.000000
endloop
endfacet
facet normal 0.290285 0.956940 0.000000
outer loop
vertex 0.158787 4.635288 -1.000000
vertex 0.346380 4.578382 1.000000
vertex 0.346380 4.578382 -1.000000
endloop
endfacet
facet normal 0.471396 0.881922 0.000000
outer loop
vertex 0.346380 4.578382 -1.000000
vertex 0.346380 4.578382 1.000000
vertex 0.519267 4.485972 1.000000
endloop
endfacet
facet normal 0.471396 0.881922 0.000000
outer loop
vertex 0.346380 4.578382 -1.000000
vertex 0.519267 4.485972 1.000000
vertex 0.519267 4.485972 -1.000000
endloop
endfacet
facet normal 0.634394 0.773010 0.000000
outer loop
vertex 0.519267 4.485972 -1.000000
vertex 0.519267 4.485972 1.000000
vertex 0.670803 4.361609 1.000000
endloop
endfacet
facet normal 0.634394 0.773010 0.000000
outer loop
vertex 0.519267 4.485972 -1.000000
vertex 0.670803 4.361609 1.000000
vertex 0.670803 4.361609 -1.000000
endloop
endfacet
facet normal 0.773010 0.634394 0.000000
outer loop
vertex 0.670803 4.361609 -1.000000
vertex 0.670803 4.361609 1.000000
vertex 0.795166 4.210073 1.000000
endloop
endfacet
facet normal 0.773010 0.634394 0.000000
outer loop
vertex 0.670803 4.361609 -1.000000
vertex 0.795166 4.210073 1.000000
vertex 0.795166 4.210073 -1.000000
endloop
endfacet
facet normal 0.881921 0.471397 0.000000
outer loop
vertex 0.795166 4.210073 -1.000000
vertex 0.795166 4.210073 1.000000
vertex 0.887576 4.037186 1.000000
endloop
endfacet
facet normal 0.881922 0.471396 0.000000
outer loop
vertex 0.795166 4.210073 -1.000000
vertex 0.887576 4.037186 1.000000
vertex 0.887576 4.037186 -1.000000
endloop
endfacet
facet normal 0.956940 0.290285 0.000000
outer loop
vertex 0.887576 4.037186 -1.000000
vertex 0.887576 4.037186 1.000000
vertex 0.944482 3.849593 1.000000
endloop
endfacet
facet normal 0.956940 0.290285 0.000000
outer loop
vertex 0.887576 4.037186 -1.000000
vertex 0.944482 3.849593 1.000000
vertex 0.944482 3.849593 -1.000000
endloop
endfacet
facet normal 0.995185 0.098017 0.000000
outer loop
vertex 0.944482 3.849593 -1.000000
vertex 0.944482 3.849593 1.000000
vertex 0.963697 3.654503 1.000000
endloop
endfacet
facet normal 0.995185 0.098017 0.000000
outer loop
vertex 0.944482 3.849593 -1.000000
vertex 0.963697 3.654503 1.000000
vertex 0.963697 3.654503 -1.000000
endloop
endfacet
facet normal 0.995185 -0.098017 0.000000
outer loop
vertex 0.963697 3.654503 -1.000000
vertex 0.963697 3.654503 1.000000
vertex 0.944482 3.459412 1.000000
endloop
endfacet
facet normal 0.995185 -0.098017 0.000000
outer loop
vertex 0.963697 3.654503 -1.000000
vertex 0.944482 3.459412 1.000000
vertex 0.944482 3.459412 -1.000000
endloop
endfacet
facet normal 0.956940 -0.290285 0.000000
outer loop
vertex 0.944482 3.459412 -1.000000
vertex 0.944482 3.459412 1.000000
vertex 0.887576 3.271819 1.000000
endloop
endfacet
facet normal 0.956940 -0.290285 0.000000
outer loop
vertex 0.944482 3.459412 -1.000000
vertex 0.887576 3.271819 1.000000
vertex 0.887576 3.271819 -1.000000
endloop
endfacet
facet normal 0.881922 -0.471396 0.000000
outer loop
vertex 0.887576 3.271819 -1.000000
vertex 0.887576 3.271819 1.000000
vertex 0.795166 3.098932 1.000000
endloop
endfacet
facet normal 0.881921 -0.471397 0.000000
outer loop
vertex 0.887576 3.271819 -1.000000
vertex 0.795166 3.098932 1.000000
vertex 0.795166 3.098932 -1.000000
endloop
endfacet
facet normal 0.773010 -0.634394 0.000000
outer loop
vertex 0.795166 3.098932 -1.000000
vertex 0.795166 3.098932 1.000000
vertex 0.670803 2.947396 1.000000
endloop
endfacet
facet normal 0.773010 -0.634394 0.000000
outer loop
vertex 0.795166 3.098932 -1.000000
vertex 0.670803 2.947396 1.000000
vertex 0.670803 2.947396 -1.000000
endloop
endfacet
facet normal 0.634393 -0.773011 0.000000
outer loop
vertex 0.670803 2.947396 -1.000000
vertex 0.670803 2.947396 1.000000
vertex 0.519267 2.823033 1.000000
endloop
endfacet
facet normal 0.634393 -0.773011 0.000000
outer loop
vertex 0.670803 2.947396 -1.000000
vertex 0.519267 2.823033 1.000000
vertex 0.519267 2.823033 -1.000000
endloop
endfacet
facet normal 0.471396 -0.881921 0.000000
outer loop
vertex 0.519267 2.823033 -1.000000
vertex 0.519267 2.823033 1.000000
vertex 0.346380 2.730623 1.000000
endloop
endfacet
facet normal 0.471396 -0.881921 0.000000
outer loop
vertex 0.519267 2.823033 -1.000000
vertex 0.346380 2.730623 1.000000
vertex 0.346380 2.730623 -1.000000
endloop
endfacet
facet normal 0.290285 -0.956940 0.000000
outer loop
vertex 0.346380 2.730623 -1.000000
vertex 0.346380 2.730623 1.000000
vertex 0.158787 2.673717 1.000000
endloop
endfacet
facet normal 0.290285 -0.956940 0.000000
outer loop
vertex 0.346380 2.730623 -1.000000
vertex 0.158787 2.673717 1.000000
vertex 0.158787 2.673717 -1.000000
endloop
endfacet
facet normal 0.098018 -0.995185 0.000000
outer loop
vertex 0.158787 2.673717 -1.000000
vertex 0.158787 2.673717 1.000000
vertex -0.036303 2.654503 1.000000
endloop
endfacet
facet normal 0.098018 -0.995185 0.000000
outer loop
vertex 0.158787 2.673717 -1.000000
vertex -0.036303 2.654503 1.000000
vertex -0.036303 2.654503 -1.000000
endloop
endfacet
facet normal -0.098018 -0.995185 0.000000
outer loop
vertex -0.036303 2.654503 -1.000000
vertex -0.036303 2.654503 1.000000
vertex -0.231394 2.673717 1.000000
endloop
endfacet
facet normal -0.098018 -0.995185 0.000000
outer loop
vertex -0.036303 2.654503 -1.000000
vertex -0.231394 2.673717 1.000000
vertex -0.231394 2.673717 -1.000000
endloop
endfacet
facet normal -0.290285 -0.956940 0.000000
outer loop
vertex -0.231394 2.673717 -1.000000
vertex -0.231394 2.673717 1.000000
vertex -0.418987 2.730623 1.000000
endloop
endfacet
facet normal -0.290285 -0.956940 0.000000
outer loop
vertex -0.231394 2.673717 -1.000000
vertex -0.418987 2.730623 1.000000
vertex -0.418987 2.730623 -1.000000
endloop
endfacet
facet normal -0.471397 -0.881921 0.000000
outer loop
vertex -0.418987 2.730623 -1.000000
vertex -0.418987 2.730623 1.000000
vertex -0.591874 2.823033 1.000000
endloop
endfacet
facet normal -0.471396 -0.881922 0.000000
outer loop
vertex -0.418987 2.730623 -1.000000
vertex -0.591874 2.823033 1.000000
vertex -0.591874 2.823033 -1.000000
endloop
endfacet
facet normal -0.634393 -0.773011 0.000000
outer loop
vertex -0.591874 2.823033 -1.000000
vertex -0.591874 2.823033 1.000000
vertex -0.743410 2.947396 1.000000
endloop
endfacet
facet normal -0.634393 -0.773011 0.000000
outer loop
vertex -0.591874 2.823033 -1.000000
vertex -0.743410 2.947396 1.000000
vertex -0.743410 2.947396 -1.000000
endloop
endfacet
facet normal -0.773010 -0.634394 0.000000
outer loop
vertex -0.743410 2.947396 -1.000000
vertex -0.743410 2.947396 1.000000
vertex -0.867773 3.098932 1.000000
endloop
endfacet
facet normal -0.773010 -0.634394 0.000000
outer loop
vertex -0.743410 2.947396 -1.000000
vertex -0.867773 3.098932 1.000000
vertex -0.867773 3.098932 -1.000000
endloop
endfacet
facet normal -0.881921 -0.471397 0.000000
outer loop
vertex -0.867773 3.098932 -1.000000
vertex -0.867773 3.098932 1.000000
vertex -0.960183 3.271819 1.000000
endloop
endfacet
facet normal -0.881922 -0.471396 0.000000
outer loop
vertex -0.867773 3.098932 -1.000000
vertex -0.960183 3.271819 1.000000
vertex -0.960183 3.271819 -1.000000
endloop
endfacet
facet normal -0.956940 -0.290285 0.000000
outer loop
vertex -0.960183 3.271819 -1.000000
vertex -0.960183 3.271819 1.000000
vertex -1.017089 3.459412 1.000000
endloop
endfacet
facet normal -0.956940 -0.290285 0.000000
outer loop
vertex -0.960183 3.271819 -1.000000
vertex -1.017089 3.459412 1.000000
vertex -1.017089 3.459412 -1.000000
endloop
endfacet
facet normal -0.995185 -0.098018 0.000000
outer loop
vertex -1.017089 3.459412 -1.000000
vertex -1.017089 3.459412 1.000000
vertex -1.036303 3.654503 1.000000
endloop
endfacet
facet normal -0.995185 -0.098017 0.000000
outer loop
vertex -1.017089 3.459412 -1.000000
vertex -1.036303 3.654503 1.000000
vertex -1.036303 3.654503 -1.000000
endloop
endfacet
facet normal -0.995185 0.098017 0.000000
outer loop
vertex -1.036303 3.654503 -1.000000
vertex -1.036303 3.654503 1.000000
vertex -1.017089 3.849593 1.000000
endloop
endfacet
facet normal -0.995185 0.098018 0.000000
outer loop
vertex -1.036303 3.654503 -1.000000
vertex -1.017089 3.849593 1.000000
vertex -1.017089 3.849593 -1.000000
endloop
endfacet
facet normal -0.956940 0.290285 0.000000
outer loop
vertex -1.017089 3.849593 -1.000000
vertex -1.017089 3.849593 1.000000
vertex -0.960183 4.037186 1.000000
endloop
endfacet
facet normal -0.956940 0.290285 0.000000
outer loop
vertex -1.017089 3.849593 -1.000000
vertex -0.960183 4.037186 1.000000
vertex -0.960183 4.037186 -1.000000
endloop
endfacet
facet normal -0.881922 0.471396 0.000000
outer loop
vertex -0.960183 4.037186 -1.000000
vertex -0.960183 4.037186 1.000000
vertex -0.867773 4.210073 1.000000
endloop
endfacet
facet normal -0.881921 0.471397 0.000000
outer loop
vertex -0.960183 4.037186 -1.000000
vertex -0.867773 4.210073 1.000000
vertex -0.867773 4.210073 -1.000000
endloop
endfacet
facet normal -0.773010 0.634394 0.000000
outer loop
vertex -0.867773 4.210073 -1.000000
vertex -0.867773 4.210073 1.000000
vertex -0.743410 4.361609 1.000000
endloop
endfacet
facet normal -0.773010 0.634394 0.000000
outer loop
vertex -0.867773 4.210073 -1.000000
vertex -0.743410 4.361609 1.000000
vertex -0.743410 4.361609 -1.000000
endloop
endfacet
facet normal -0.634394 0.773010 0.000000
outer loop
vertex -0.743410 4.361609 -1.000000
vertex -0.743410 4.361609 1.000000
vertex -0.591874 4.485972 1.000000
endloop
endfacet
facet normal -0.634394 0.773010 0.000000
outer loop
vertex -0.743410 4.361609 -1.000000
vertex -0.591874 4.485972 1.000000
vertex -0.591874 4.485972 -1.000000
endloop
endfacet
facet normal -0.471395 0.881922 0.000000
outer loop
vertex -0.591874 4.485972 -1.000000
vertex -0.591874 4.485972 1.000000
vertex -0.418987 4.578382 1.000000
endloop
endfacet
facet normal -0.471396 0.881922 0.000000
outer loop
vertex -0.591874 4.485972 -1.000000
vertex -0.418987 4.578382 1.000000
vertex -0.418987 4.578382 -1.000000
endloop
endfacet
facet normal 0.000000 0.000000 1.000000
outer loop
vertex 0.346380 4.578382 1.000000
vertex 0.158787 4.635288 1.000000
vertex -0.036303 4.654503 1.000000
endloop
endfacet
facet normal 0.000000 0.000000 1.000000
outer loop
vertex -0.036303 4.654503 1.000000
vertex -0.231394 4.635288 1.000000
vertex -0.418987 4.578382 1.000000
endloop
endfacet
facet normal 0.000000 0.000000 1.000000
outer loop
vertex -0.418987 4.578382 1.000000
vertex -0.591874 4.485972 1.000000
vertex -0.743410 4.361609 1.000000
endloop
endfacet
facet normal 0.000000 0.000000 1.000000
outer loop
vertex -0.743410 4.361609 1.000000
vertex -0.867773 4.210073 1.000000
vertex -0.960183 4.037186 1.000000
endloop
endfacet
facet normal 0.000000 0.000000 1.000000
outer loop
vertex -0.960183 4.037186 1.000000
vertex -1.017089 3.849593 1.000000
vertex -1.036303 3.654503 1.000000
endloop
endfacet
facet normal 0.000000 0.000000 1.000000
outer loop
vertex -1.036303 3.654503 1.000000
vertex -1.017089 3.459412 1.000000
vertex -0.960183 3.271819 1.000000
endloop
endfacet
facet normal 0.000000 0.000000 1.000000
outer loop
vertex -0.960183 3.271819 1.000000
vertex -0.867773 3.098932 1.000000
vertex -0.743410 2.947396 1.000000
endloop
endfacet
facet normal 0.000000 0.000000 1.000000
outer loop
vertex -0.743410 2.947396 1.000000
vertex -0.591874 2.823033 1.000000
vertex -0.418987 2.730623 1.000000
endloop
endfacet
facet normal 0.000000 0.000000 1.000000
outer loop
vertex -0.418987 2.730623 1.000000
vertex -0.231394 2.673717 1.000000
vertex -0.036303 2.654503 1.000000
endloop
endfacet
facet normal 0.000000 0.000000 1.000000
outer loop
vertex -0.036303 2.654503 1.000000
vertex 0.158787 2.673717 1.000000
vertex 0.346380 2.730623 1.000000
endloop
endfacet
facet normal 0.000000 0.000000 1.000000
outer loop
vertex 0.346380 2.730623 1.000000
vertex 0.519267 2.823033 1.000000
vertex 0.670803 2.947396 1.000000
endloop
endfacet
facet normal 0.000000 0.000000 1.000000
outer loop
vertex 0.670803 2.947396 1.000000
vertex 0.795166 3.098932 1.000000
vertex 0.887576 3.271819 1.000000
endloop
endfacet
facet normal 0.000000 0.000000 1.000000
outer loop
vertex 0.887576 3.271819 1.000000
vertex 0.944482 3.459412 1.000000
vertex 0.963697 3.654503 1.000000
endloop
endfacet
facet normal 0.000000 0.000000 1.000000
outer loop
vertex 0.963697 3.654503 1.000000
vertex 0.944482 3.849593 1.000000
vertex 0.887576 4.037186 1.000000
endloop
endfacet
facet normal 0.000000 0.000000 1.000000
outer loop
vertex 0.887576 4.037186 1.000000
vertex 0.795166 4.210073 1.000000
vertex 0.670803 4.361609 1.000000
endloop
endfacet
facet normal 0.000000 0.000000 1.000000
outer loop
vertex 0.670803 4.361609 1.000000
vertex 0.519267 4.485972 1.000000
vertex 0.346380 4.578382 1.000000
endloop
endfacet
facet normal 0.000000 0.000000 1.000000
outer loop
vertex 0.346380 4.578382 1.000000
vertex -0.036303 4.654503 1.000000
vertex -0.418987 4.578382 1.000000
endloop
endfacet
facet normal 0.000000 0.000000 1.000000
outer loop
vertex -0.418987 4.578382 1.000000
vertex -0.743410 4.361609 1.000000
vertex -0.960183 4.037186 1.000000
endloop
endfacet
facet normal 0.000000 0.000000 1.000000
outer loop
vertex -0.960183 4.037186 1.000000
vertex -1.036303 3.654503 1.000000
vertex -0.960183 3.271819 1.000000
endloop
endfacet
facet normal 0.000000 0.000000 1.000000
outer loop
vertex -0.960183 3.271819 1.000000
vertex -0.743410 2.947396 1.000000
vertex -0.418987 2.730623 1.000000
endloop
endfacet
facet normal 0.000000 0.000000 1.000000
outer loop
vertex -0.418987 2.730623 1.000000
vertex -0.036303 2.654503 1.000000
vertex 0.346380 2.730623 1.000000
endloop
endfacet
facet normal 0.000000 0.000000 1.000000
outer loop
vertex 0.346380 2.730623 1.000000
vertex 0.670803 2.947396 1.000000
vertex 0.887576 3.271819 1.000000
endloop
endfacet
facet normal 0.000000 0.000000 1.000000
outer loop
vertex 0.887576 3.271819 1.000000
vertex 0.963697 3.654503 1.000000
vertex 0.887576 4.037186 1.000000
endloop
endfacet
facet normal 0.000000 0.000000 1.000000
outer loop
vertex 0.887576 4.037186 1.000000
vertex 0.670803 4.361609 1.000000
vertex 0.346380 4.578382 1.000000
endloop
endfacet
facet normal 0.000000 0.000000 1.000000
outer loop
vertex 0.346380 4.578382 1.000000
vertex -0.418987 4.578382 1.000000
vertex -0.960183 4.037186 1.000000
endloop
endfacet
facet normal 0.000000 0.000000 1.000000
outer loop
vertex -0.960183 4.037186 1.000000
vertex -0.960183 3.271819 1.000000
vertex -0.418987 2.730623 1.000000
endloop
endfacet
facet normal 0.000000 0.000000 1.000000
outer loop
vertex -0.418987 2.730623 1.000000
vertex 0.346380 2.730623 1.000000
vertex 0.887576 3.271819 1.000000
endloop
endfacet
facet normal 0.000000 0.000000 1.000000
outer loop
vertex 0.887576 3.271819 1.000000
vertex 0.887576 4.037186 1.000000
vertex 0.346380 4.578382 1.000000
endloop
endfacet
facet normal 0.000000 0.000000 1.000000
outer loop
vertex 0.346380 4.578382 1.000000
vertex -0.960183 4.037186 1.000000
vertex -0.418987 2.730623 1.000000
endloop
endfacet
facet normal 0.000000 0.000000 1.000000
outer loop
vertex -0.418987 2.730623 1.000000
vertex 0.887576 3.271819 1.000000
vertex 0.346380 4.578382 1.000000
endloop
endfacet
facet normal -0.290285 0.956940 0.000000
outer loop
vertex -0.418987 4.578382 -1.000000
vertex -0.418987 4.578382 1.000000
vertex -0.231394 4.635288 1.000000
endloop
endfacet
facet normal -0.290285 0.956940 0.000000
outer loop
vertex -0.418987 4.578382 -1.000000
vertex -0.231394 4.635288 1.000000
vertex -0.231394 4.635288 -1.000000
endloop
endfacet
facet normal -0.098019 0.995185 0.000000
outer loop
vertex -0.231394 4.635288 -1.000000
vertex -0.231394 4.635288 1.000000
vertex -0.036303 4.654503 1.000000
endloop
endfacet
facet normal -0.098019 0.995185 0.000000
outer loop
vertex -0.231394 4.635288 -1.000000
vertex -0.036303 4.654503 1.000000
vertex -0.036303 4.654503 -1.000000
endloop
endfacet
facet normal 0.000000 0.000000 -1.000000
outer loop
vertex -0.231394 4.635288 -1.000000
vertex -0.036303 4.654503 -1.000000
vertex 0.158787 4.635288 -1.000000
endloop
endfacet
facet normal 0.000000 0.000000 -1.000000
outer loop
vertex 0.158787 4.635288 -1.000000
vertex 0.346380 4.578382 -1.000000
vertex 0.519267 4.485972 -1.000000
endloop
endfacet
facet normal 0.000000 0.000000 -1.000000
outer loop
vertex 0.519267 4.485972 -1.000000
vertex 0.670803 4.361609 -1.000000
vertex 0.795166 4.210073 -1.000000
endloop
endfacet
facet normal 0.000000 0.000000 -1.000000
outer loop
vertex 0.795166 4.210073 -1.000000
vertex 0.887576 4.037186 -1.000000
vertex 0.944482 3.849593 -1.000000
endloop
endfacet
facet normal 0.000000 0.000000 -1.000000
outer loop
vertex 0.944482 3.849593 -1.000000
vertex 0.963697 3.654503 -1.000000
vertex 0.944482 3.459412 -1.000000
endloop
endfacet
facet normal 0.000000 0.000000 -1.000000
outer loop
vertex 0.944482 3.459412 -1.000000
vertex 0.887576 3.271819 -1.000000
vertex 0.795166 3.098932 -1.000000
endloop
endfacet
facet normal 0.000000 0.000000 -1.000000
outer loop
vertex 0.795166 3.098932 -1.000000
vertex 0.670803 2.947396 -1.000000
vertex 0.519267 2.823033 -1.000000
endloop
endfacet
facet normal 0.000000 0.000000 -1.000000
outer loop
vertex 0.519267 2.823033 -1.000000
vertex 0.346380 2.730623 -1.000000
vertex 0.158787 2.673717 -1.000000
endloop
endfacet
facet normal 0.000000 0.000000 -1.000000
outer loop
vertex 0.158787 2.673717 -1.000000
vertex -0.036303 2.654503 -1.000000
vertex -0.231394 2.673717 -1.000000
endloop
endfacet
facet normal 0.000000 0.000000 -1.000000
outer loop
vertex -0.231394 2.673717 -1.000000
vertex -0.418987 2.730623 -1.000000
vertex -0.591874 2.823033 -1.000000
endloop
endfacet
facet normal 0.000000 0.000000 -1.000000
outer loop
vertex -0.591874 2.823033 -1.000000
vertex -0.743410 2.947396 -1.000000
vertex -0.867773 3.098932 -1.000000
endloop
endfacet
facet normal 0.000000 0.000000 -1.000000
outer loop
vertex -0.867773 3.098932 -1.000000
vertex -0.960183 3.271819 -1.000000
vertex -1.017089 3.459412 -1.000000
endloop
endfacet
facet normal 0.000000 0.000000 -1.000000
outer loop
vertex -1.017089 3.459412 -1.000000
vertex -1.036303 3.654503 -1.000000
vertex -1.017089 3.849593 -1.000000
endloop
endfacet
facet normal 0.000000 0.000000 -1.000000
outer loop
vertex -1.017089 3.849593 -1.000000
vertex -0.960183 4.037186 -1.000000
vertex -0.867773 4.210073 -1.000000
endloop
endfacet
facet normal 0.000000 0.000000 -1.000000
outer loop
vertex -0.867773 4.210073 -1.000000
vertex -0.743410 4.361609 -1.000000
vertex -0.591874 4.485972 -1.000000
endloop
endfacet
facet normal 0.000000 0.000000 -1.000000
outer loop
vertex -0.591874 4.485972 -1.000000
vertex -0.418987 4.578382 -1.000000
vertex -0.231394 4.635288 -1.000000
endloop
endfacet
facet normal 0.000000 0.000000 -1.000000
outer loop
vertex -0.231394 4.635288 -1.000000
vertex 0.158787 4.635288 -1.000000
vertex 0.519267 4.485972 -1.000000
endloop
endfacet
facet normal 0.000000 0.000000 -1.000000
outer loop
vertex 0.519267 4.485972 -1.000000
vertex 0.795166 4.210073 -1.000000
vertex 0.944482 3.849593 -1.000000
endloop
endfacet
facet normal 0.000000 0.000000 -1.000000
outer loop
vertex 0.944482 3.849593 -1.000000
vertex 0.944482 3.459412 -1.000000
vertex 0.795166 3.098932 -1.000000
endloop
endfacet
facet normal 0.000000 0.000000 -1.000000
outer loop
vertex 0.795166 3.098932 -1.000000
vertex 0.519267 2.823033 -1.000000
vertex 0.158787 2.673717 -1.000000
endloop
endfacet
facet normal 0.000000 0.000000 -1.000000
outer loop
vertex 0.158787 2.673717 -1.000000
vertex -0.231394 2.673717 -1.000000
vertex -0.591874 2.823033 -1.000000
endloop
endfacet
facet normal 0.000000 0.000000 -1.000000
outer loop
vertex -0.591874 2.823033 -1.000000
vertex -0.867773 3.098932 -1.000000
vertex -1.017089 3.459412 -1.000000
endloop
endfacet
facet normal 0.000000 0.000000 -1.000000
outer loop
vertex -1.017089 3.459412 -1.000000
vertex -1.017089 3.849593 -1.000000
vertex -0.867773 4.210073 -1.000000
endloop
endfacet
facet normal 0.000000 0.000000 -1.000000
outer loop
vertex -0.867773 4.210073 -1.000000
vertex -0.591874 4.485972 -1.000000
vertex -0.231394 4.635288 -1.000000
endloop
endfacet
facet normal 0.000000 0.000000 -1.000000
outer loop
vertex -0.231394 4.635288 -1.000000
vertex 0.519267 4.485972 -1.000000
vertex 0.944482 3.849593 -1.000000
endloop
endfacet
facet normal 0.000000 0.000000 -1.000000
outer loop
vertex 0.944482 3.849593 -1.000000
vertex 0.795166 3.098932 -1.000000
vertex 0.158787 2.673717 -1.000000
endloop
endfacet
facet normal 0.000000 0.000000 -1.000000
outer loop
vertex 0.158787 2.673717 -1.000000
vertex -0.591874 2.823033 -1.000000
vertex -1.017089 3.459412 -1.000000
endloop
endfacet
facet normal 0.000000 0.000000 -1.000000
outer loop
vertex -1.017089 3.459412 -1.000000
vertex -0.867773 4.210073 -1.000000
vertex -0.231394 4.635288 -1.000000
endloop
endfacet
facet normal 0.000000 0.000000 -1.000000
outer loop
vertex -0.231394 4.635288 -1.000000
vertex 0.944482 3.849593 -1.000000
vertex 0.158787 2.673717 -1.000000
endloop
endfacet
facet normal 0.000000 0.000000 -1.000000
outer loop
vertex 0.158787 2.673717 -1.000000
vertex -1.017089 3.459412 -1.000000
vertex -0.231394 4.635288 -1.000000
endloop
endfacet
endsolid Exported from Blender-4.0.2
