solid Exported from Blender-4.0.2
facet normal 0.098018 0.995185 0.000000
outer loop
vertex 0.012735 1.005047 -1.012408
vertex 0.012735 1.005047 0.987592
vertex 0.207825 0.985833 0.987592
endloop
endfacet
facet normal 0.098018 0.995185 0.000000
outer loop
vertex 0.012735 1.005047 -1.012408
vertex 0.207825 0.985833 0.987592
vertex 0.207825 0.985833 -1.012408
endloop
endfacet
facet normal 0.290285 0.956940 0.000000
outer loop
vertex 0.207825 0.985833 -1.012408
vertex 0.207825 0.985833 0.987592
vertex 0.395418 0.928927 0.987592
endloop
endfacet
facet normal 0.290285 0.956940 0.000000
outer loop
vertex 0.207825 0.985833 -1.012408
vertex 0.395418 0.928927 0.987592
vertex 0.395418 0.928927 -1.012408
endloop
endfacet
facet normal 0.471397 0.881921 0.000000
outer loop
vertex 0.395418 0.928927 -1.012408
vertex 0.395418 0.928927 0.987592
vertex 0.568305 0.836517 0.987592
endloop
endfacet
facet normal 0.471397 0.881921 0.000000
outer loop
vertex 0.395418 0.928927 -1.012408
vertex 0.568305 0.836517 0.987592
vertex 0.568305 0.836517 -1.012408
endloop
endfacet
facet normal 0.634394 0.773010 0.000000
outer loop
vertex 0.568305 0.836517 -1.012408
vertex 0.568305 0.836517 0.987592
vertex 0.719842 0.712154 0.987592
endloop
endfacet
facet normal 0.634393 0.773011 0.000000
outer loop
vertex 0.568305 0.836517 -1.012408
vertex 0.719842 0.712154 0.987592
vertex 0.719842 0.712154 -1.012408
endloop
endfacet
facet normal 0.773010 0.634393 0.000000
outer loop
vertex 0.719842 0.712154 -1.012408
vertex 0.719842 0.712154 0.987592
vertex 0.844204 0.560618 0.987592
endloop
endfacet
facet normal 0.773010 0.634393 0.000000
outer loop
vertex 0.719842 0.712154 -1.012408
vertex 0.844204 0.560618 0.987592
vertex 0.844204 0.560618 -1.012408
endloop
endfacet
facet normal 0.881921 0.471397 0.000000
outer loop
vertex 0.844204 0.560618 -1.012408
vertex 0.844204 0.560618 0.987592
vertex 0.936614 0.387731 0.987592
endloop
endfacet
facet normal 0.881921 0.471397 0.000000
outer loop
vertex 0.844204 0.560618 -1.012408
vertex 0.936614 0.387731 0.987592
vertex 0.936614 0.387731 -1.012408
endloop
endfacet
facet normal 0.956940 0.290285 0.000000
outer loop
vertex 0.936614 0.387731 -1.012408
vertex 0.936614 0.387731 0.987592
vertex 0.993520 0.200138 0.987592
endloop
endfacet
facet normal 0.956940 0.290285 0.000000
outer loop
vertex 0.936614 0.387731 -1.012408
vertex 0.993520 0.200138 0.987592
vertex 0.993520 0.200138 -1.012408
endloop
endfacet
facet normal 0.995185 0.098018 0.000000
outer loop
vertex 0.993520 0.200138 -1.012408
vertex 0.993520 0.200138 0.987592
vertex 1.012735 0.005047 0.987592
endloop
endfacet
facet normal 0.995185 0.098017 0.000000
outer loop
vertex 0.993520 0.200138 -1.012408
vertex 1.012735 0.005047 0.987592
vertex 1.012735 0.005047 -1.012408
endloop
endfacet
facet normal 0.995185 -0.098017 0.000000
outer loop
vertex 1.012735 0.005047 -1.012408
vertex 1.012735 0.005047 0.987592
vertex 0.993520 -0.190043 0.987592
endloop
endfacet
facet normal 0.995185 -0.098018 0.000000
outer loop
vertex 1.012735 0.005047 -1.012408
vertex 0.993520 -0.190043 0.987592
vertex 0.993520 -0.190043 -1.012408
endloop
endfacet
facet normal 0.956940 -0.290285 0.000000
outer loop
vertex 0.993520 -0.190043 -1.012408
vertex 0.993520 -0.190043 0.987592
vertex 0.936614 -0.377636 0.987592
endloop
endfacet
facet normal 0.956940 -0.290285 0.000000
outer loop
vertex 0.993520 -0.190043 -1.012408
vertex 0.936614 -0.377636 0.987592
vertex 0.936614 -0.377636 -1.012408
endloop
endfacet
facet normal 0.881921 -0.471396 0.000000
outer loop
vertex 0.936614 -0.377636 -1.012408
vertex 0.936614 -0.377636 0.987592
vertex 0.844204 -0.550523 0.987592
endloop
endfacet
facet normal 0.881921 -0.471397 0.000000
outer loop
vertex 0.936614 -0.377636 -1.012408
vertex 0.844204 -0.550523 0.987592
vertex 0.844204 -0.550523 -1.012408
endloop
endfacet
facet normal 0.773010 -0.634393 0.000000
outer loop
vertex 0.844204 -0.550523 -1.012408
vertex 0.844204 -0.550523 0.987592
vertex 0.719842 -0.702059 0.987592
endloop
endfacet
facet normal 0.773010 -0.634393 0.000000
outer loop
vertex 0.844204 -0.550523 -1.012408
vertex 0.719842 -0.702059 0.987592
vertex 0.719842 -0.702059 -1.012408
endloop
endfacet
facet normal 0.634393 -0.773011 0.000000
outer loop
vertex 0.719842 -0.702059 -1.012408
vertex 0.719842 -0.702059 0.987592
vertex 0.568305 -0.826422 0.987592
endloop
endfacet
facet normal 0.634393 -0.773010 0.000000
outer loop
vertex 0.719842 -0.702059 -1.012408
vertex 0.568305 -0.826422 0.987592
vertex 0.568305 -0.826422 -1.012408
endloop
endfacet
facet normal 0.471397 -0.881921 0.000000
outer loop
vertex 0.568305 -0.826422 -1.012408
vertex 0.568305 -0.826422 0.987592
vertex 0.395418 -0.918832 0.987592
endloop
endfacet
facet normal 0.471397 -0.881921 0.000000
outer loop
vertex 0.568305 -0.826422 -1.012408
vertex 0.395418 -0.918832 0.987592
vertex 0.395418 -0.918832 -1.012408
endloop
endfacet
facet normal 0.290285 -0.956940 0.000000
outer loop
vertex 0.395418 -0.918832 -1.012408
vertex 0.395418 -0.918832 0.987592
vertex 0.207825 -0.975738 0.987592
endloop
endfacet
facet normal 0.290285 -0.956940 0.000000
outer loop
vertex 0.395418 -0.918832 -1.012408
vertex 0.207825 -0.975738 0.987592
vertex 0.207825 -0.975738 -1.012408
endloop
endfacet
facet normal 0.098017 -0.995185 0.000000
outer loop
vertex 0.207825 -0.975738 -1.012408
vertex 0.207825 -0.975738 0.987592
vertex 0.012735 -0.994953 0.987592
endloop
endfacet
facet normal 0.098017 -0.995185 0.000000
outer loop
vertex 0.207825 -0.975738 -1.012408
vertex 0.012735 -0.994953 0.987592
vertex 0.012735 -0.994953 -1.012408
endloop
endfacet
facet normal -0.098017 -0.995185 0.000000
outer loop
vertex 0.012735 -0.994953 -1.012408
vertex 0.012735 -0.994953 0.987592
vertex -0.182355 -0.975738 0.987592
endloop
endfacet
facet normal -0.098017 -0.995185 0.000000
outer loop
vertex 0.012735 -0.994953 -1.012408
vertex -0.182355 -0.975738 0.987592
vertex -0.182355 -0.975738 -1.012408
endloop
endfacet
facet normal -0.290285 -0.956940 0.000000
outer loop
vertex -0.182355 -0.975738 -1.012408
vertex -0.182355 -0.975738 0.987592
vertex -0.369949 -0.918832 0.987592
endloop
endfacet
facet normal -0.290285 -0.956940 0.000000
outer loop
vertex -0.182355 -0.975738 -1.012408
vertex -0.369949 -0.918832 0.987592
vertex -0.369949 -0.918832 -1.012408
endloop
endfacet
facet normal -0.471397 -0.881921 0.000000
outer loop
vertex -0.369949 -0.918832 -1.012408
vertex -0.369949 -0.918832 0.987592
vertex -0.542835 -0.826422 0.987592
endloop
endfacet
facet normal -0.471397 -0.881921 0.000000
outer loop
vertex -0.369949 -0.918832 -1.012408
vertex -0.542835 -0.826422 0.987592
vertex -0.542835 -0.826422 -1.012408
endloop
endfacet
facet normal -0.634394 -0.773010 0.000000
outer loop
vertex -0.542835 -0.826422 -1.012408
vertex -0.542835 -0.826422 0.987592
vertex -0.694372 -0.702059 0.987592
endloop
endfacet
facet normal -0.634393 -0.773011 0.000000
outer loop
vertex -0.542835 -0.826422 -1.012408
vertex -0.694372 -0.702059 0.987592
vertex -0.694372 -0.702059 -1.012408
endloop
endfacet
facet normal -0.773010 -0.634393 0.000000
outer loop
vertex -0.694372 -0.702059 -1.012408
vertex -0.694372 -0.702059 0.987592
vertex -0.818735 -0.550523 0.987592
endloop
endfacet
facet normal -0.773010 -0.634393 0.000000
outer loop
vertex -0.694372 -0.702059 -1.012408
vertex -0.818735 -0.550523 0.987592
vertex -0.818735 -0.550523 -1.012408
endloop
endfacet
facet normal -0.881921 -0.471397 0.000000
outer loop
vertex -0.818735 -0.550523 -1.012408
vertex -0.818735 -0.550523 0.987592
vertex -0.911145 -0.377636 0.987592
endloop
endfacet
facet normal -0.881921 -0.471396 0.000000
outer loop
vertex -0.818735 -0.550523 -1.012408
vertex -0.911145 -0.377636 0.987592
vertex -0.911145 -0.377636 -1.012408
endloop
endfacet
facet normal -0.956940 -0.290285 0.000000
outer loop
vertex -0.911145 -0.377636 -1.012408
vertex -0.911145 -0.377636 0.987592
vertex -0.968050 -0.190043 0.987592
endloop
endfacet
facet normal -0.956940 -0.290285 0.000000
outer loop
vertex -0.911145 -0.377636 -1.012408
vertex -0.968050 -0.190043 0.987592
vertex -0.968050 -0.190043 -1.012408
endloop
endfacet
facet normal -0.995185 -0.098017 0.000000
outer loop
vertex -0.968050 -0.190043 -1.012408
vertex -0.968050 -0.190043 0.987592
vertex -0.987265 0.005047 0.987592
endloop
endfacet
facet normal -0.995185 -0.098017 0.000000
outer loop
vertex -0.968050 -0.190043 -1.012408
vertex -0.987265 0.005047 0.987592
vertex -0.987265 0.005047 -1.012408
endloop
endfacet
facet normal -0.995185 0.098017 0.000000
outer loop
vertex -0.987265 0.005047 -1.012408
vertex -0.987265 0.005047 0.987592
vertex -0.968050 0.200138 0.987592
endloop
endfacet
facet normal -0.995185 0.098017 0.000000
outer loop
vertex -0.987265 0.005047 -1.012408
vertex -0.968050 0.200138 0.987592
vertex -0.968050 0.200138 -1.012408
endloop
endfacet
facet normal -0.956940 0.290285 0.000000
outer loop
vertex -0.968050 0.200138 -1.012408
vertex -0.968050 0.200138 0.987592
vertex -0.911145 0.387731 0.987592
endloop
endfacet
facet normal -0.956940 0.290285 0.000000
outer loop
vertex -0.968050 0.200138 -1.012408
vertex -0.911145 0.387731 0.987592
vertex -0.911145 0.387731 -1.012408
endloop
endfacet
facet normal -0.881921 0.471397 0.000000
outer loop
vertex -0.911145 0.387731 -1.012408
vertex -0.911145 0.387731 0.987592
vertex -0.818735 0.560618 0.987592
endloop
endfacet
facet normal -0.881921 0.471397 0.000000
outer loop
vertex -0.911145 0.387731 -1.012408
vertex -0.818735 0.560618 0.987592
vertex -0.818735 0.560618 -1.012408
endloop
endfacet
facet normal -0.773010 0.634393 0.000000
outer loop
vertex -0.818735 0.560618 -1.012408
vertex -0.818735 0.560618 0.987592
vertex -0.694372 0.712154 0.987592
endloop
endfacet
facet normal -0.773010 0.634393 0.000000
outer loop
vertex -0.818735 0.560618 -1.012408
vertex -0.694372 0.712154 0.987592
vertex -0.694372 0.712154 -1.012408
endloop
endfacet
facet normal -0.634393 0.773011 0.000000
outer loop
vertex -0.694372 0.712154 -1.012408
vertex -0.694372 0.712154 0.987592
vertex -0.542835 0.836517 0.987592
endloop
endfacet
facet normal -0.634393 0.773010 0.000000
outer loop
vertex -0.694372 0.712154 -1.012408
vertex -0.542835 0.836517 0.987592
vertex -0.542835 0.836517 -1.012408
endloop
endfacet
facet normal -0.471397 0.881921 0.000000
outer loop
vertex -0.542835 0.836517 -1.012408
vertex -0.542835 0.836517 0.987592
vertex -0.369949 0.928927 0.987592
endloop
endfacet
facet normal -0.471397 0.881921 0.000000
outer loop
vertex -0.542835 0.836517 -1.012408
vertex -0.369949 0.928927 0.987592
vertex -0.369949 0.928927 -1.012408
endloop
endfacet
facet normal 0.000000 0.000000 1.000000
outer loop
vertex 0.395418 0.928927 0.987592
vertex 0.207825 0.985833 0.987592
vertex 0.012735 1.005047 0.987592
endloop
endfacet
facet normal 0.000000 0.000000 1.000000
outer loop
vertex 0.012735 1.005047 0.987592
vertex -0.182355 0.985833 0.987592
vertex -0.369949 0.928927 0.987592
endloop
endfacet
facet normal 0.000002 0.000000 1.000000
outer loop
vertex -0.369949 0.928927 0.987592
vertex -0.542835 0.836517 0.987592
vertex -0.694372 0.712154 0.987592
endloop
endfacet
facet normal 0.000000 0.000000 1.000000
outer loop
vertex -0.694372 0.712154 0.987592
vertex -0.818735 0.560618 0.987592
vertex -0.911145 0.387731 0.987592
endloop
endfacet
facet normal 0.000000 0.000000 1.000000
outer loop
vertex -0.911145 0.387731 0.987592
vertex -0.968050 0.200138 0.987592
vertex -0.987265 0.005047 0.987592
endloop
endfacet
facet normal 0.000000 0.000000 1.000000
outer loop
vertex -0.987265 0.005047 0.987592
vertex -0.968050 -0.190043 0.987592
vertex -0.911145 -0.377636 0.987592
endloop
endfacet
facet normal -0.000004 0.000000 1.000000
outer loop
vertex -0.911145 -0.377636 0.987592
vertex -0.818735 -0.550523 0.987592
vertex -0.694372 -0.702059 0.987592
endloop
endfacet
facet normal 0.000002 0.000000 1.000000
outer loop
vertex -0.694372 -0.702059 0.987592
vertex -0.542835 -0.826422 0.987592
vertex -0.369949 -0.918832 0.987592
endloop
endfacet
facet normal 0.000000 0.000000 1.000000
outer loop
vertex -0.369949 -0.918832 0.987592
vertex -0.182355 -0.975738 0.987592
vertex 0.012735 -0.994953 0.987592
endloop
endfacet
facet normal 0.000000 0.000000 1.000000
outer loop
vertex 0.012735 -0.994953 0.987592
vertex 0.207825 -0.975738 0.987592
vertex 0.395418 -0.918832 0.987592
endloop
endfacet
facet normal -0.000002 0.000000 1.000000
outer loop
vertex 0.395418 -0.918832 0.987592
vertex 0.568305 -0.826422 0.987592
vertex 0.719842 -0.702059 0.987592
endloop
endfacet
facet normal 0.000004 0.000000 1.000000
outer loop
vertex 0.719842 -0.702059 0.987592
vertex 0.844204 -0.550523 0.987592
vertex 0.936614 -0.377636 0.987592
endloop
endfacet
facet normal 0.000000 0.000000 1.000000
outer loop
vertex 0.936614 -0.377636 0.987592
vertex 0.993520 -0.190043 0.987592
vertex 1.012735 0.005047 0.987592
endloop
endfacet
facet normal 0.000000 0.000000 1.000000
outer loop
vertex 1.012735 0.005047 0.987592
vertex 0.993520 0.200138 0.987592
vertex 0.936614 0.387731 0.987592
endloop
endfacet
facet normal 0.000000 0.000000 1.000000
outer loop
vertex 0.936614 0.387731 0.987592
vertex 0.844204 0.560618 0.987592
vertex 0.719842 0.712154 0.987592
endloop
endfacet
facet normal -0.000002 0.000000 1.000000
outer loop
vertex 0.719842 0.712154 0.987592
vertex 0.568305 0.836517 0.987592
vertex 0.395418 0.928927 0.987592
endloop
endfacet
facet normal 0.000000 0.000000 1.000000
outer loop
vertex 0.395418 0.928927 0.987592
vertex 0.012735 1.005047 0.987592
vertex -0.369949 0.928927 0.987592
endloop
endfacet
facet normal 0.000001 0.000000 1.000000
outer loop
vertex -0.369949 0.928927 0.987592
vertex -0.694372 0.712154 0.987592
vertex -0.911145 0.387731 0.987592
endloop
endfacet
facet normal 0.000000 0.000000 1.000000
outer loop
vertex -0.911145 0.387731 0.987592
vertex -0.987265 0.005047 0.987592
vertex -0.911145 -0.377636 0.987592
endloop
endfacet
facet normal -0.000001 0.000000 1.000000
outer loop
vertex -0.911145 -0.377636 0.987592
vertex -0.694372 -0.702059 0.987592
vertex -0.369949 -0.918832 0.987592
endloop
endfacet
facet normal 0.000000 0.000000 1.000000
outer loop
vertex -0.369949 -0.918832 0.987592
vertex 0.012735 -0.994953 0.987592
vertex 0.395418 -0.918832 0.987592
endloop
endfacet
facet normal 0.000001 0.000000 1.000000
outer loop
vertex 0.395418 -0.918832 0.987592
vertex 0.719842 -0.702059 0.987592
vertex 0.936614 -0.377636 0.987592
endloop
endfacet
facet normal 0.000000 0.000000 1.000000
outer loop
vertex 0.936614 -0.377636 0.987592
vertex 1.012735 0.005047 0.987592
vertex 0.936614 0.387731 0.987592
endloop
endfacet
facet normal -0.000001 0.000000 1.000000
outer loop
vertex 0.936614 0.387731 0.987592
vertex 0.719842 0.712154 0.987592
vertex 0.395418 0.928927 0.987592
endloop
endfacet
facet normal 0.000000 0.000000 1.000000
outer loop
vertex 0.395418 0.928927 0.987592
vertex -0.369949 0.928927 0.987592
vertex -0.911145 0.387731 0.987592
endloop
endfacet
facet normal 0.000000 0.000000 1.000000
outer loop
vertex -0.911145 0.387731 0.987592
vertex -0.911145 -0.377636 0.987592
vertex -0.369949 -0.918832 0.987592
endloop
endfacet
facet normal 0.000000 0.000000 1.000000
outer loop
vertex -0.369949 -0.918832 0.987592
vertex 0.395418 -0.918832 0.987592
vertex 0.936614 -0.377636 0.987592
endloop
endfacet
facet normal -0.000000 0.000000 1.000000
outer loop
vertex 0.936614 -0.377636 0.987592
vertex 0.936614 0.387731 0.987592
vertex 0.395418 0.928927 0.987592
endloop
endfacet
facet normal 0.000000 0.000000 1.000000
outer loop
vertex 0.395418 0.928927 0.987592
vertex -0.911145 0.387731 0.987592
vertex -0.369949 -0.918832 0.987592
endloop
endfacet
facet normal 0.000000 0.000000 1.000000
outer loop
vertex -0.369949 -0.918832 0.987592
vertex 0.936614 -0.377636 0.987592
vertex 0.395418 0.928927 0.987592
endloop
endfacet
facet normal -0.290285 0.956940 0.000000
outer loop
vertex -0.369949 0.928927 -1.012408
vertex -0.369949 0.928927 0.987592
vertex -0.182355 0.985833 0.987592
endloop
endfacet
facet normal -0.290285 0.956940 0.000000
outer loop
vertex -0.369949 0.928927 -1.012408
vertex -0.182355 0.985833 0.987592
vertex -0.182355 0.985833 -1.012408
endloop
endfacet
facet normal -0.098018 0.995185 0.000000
outer loop
vertex -0.182355 0.985833 -1.012408
vertex -0.182355 0.985833 0.987592
vertex 0.012735 1.005047 0.987592
endloop
endfacet
facet normal -0.098018 0.995185 0.000000
outer loop
vertex -0.182355 0.985833 -1.012408
vertex 0.012735 1.005047 0.987592
vertex 0.012735 1.005047 -1.012408
endloop
endfacet
facet normal 0.000000 0.000000 -1.000000
outer loop
vertex -0.182355 0.985833 -1.012408
vertex 0.012735 1.005047 -1.012408
vertex 0.207825 0.985833 -1.012408
endloop
endfacet
facet normal 0.000000 0.000000 -1.000000
outer loop
vertex 0.207825 0.985833 -1.012408
vertex 0.395418 0.928927 -1.012408
vertex 0.568305 0.836517 -1.012408
endloop
endfacet
facet normal 0.000000 0.000000 -1.000000
outer loop
vertex 0.568305 0.836517 -1.012408
vertex 0.719842 0.712154 -1.012408
vertex 0.844204 0.560618 -1.012408
endloop
endfacet
facet normal 0.000004 0.000000 -1.000000
outer loop
vertex 0.844204 0.560618 -1.012408
vertex 0.936614 0.387731 -1.012408
vertex 0.993520 0.200138 -1.012408
endloop
endfacet
facet normal 0.000000 0.000000 -1.000000
outer loop
vertex 0.993520 0.200138 -1.012408
vertex 1.012735 0.005047 -1.012408
vertex 0.993520 -0.190043 -1.012408
endloop
endfacet
facet normal 0.000000 0.000000 -1.000000
outer loop
vertex 0.993520 -0.190043 -1.012408
vertex 0.936614 -0.377636 -1.012408
vertex 0.844204 -0.550523 -1.012408
endloop
endfacet
facet normal 0.000000 0.000000 -1.000000
outer loop
vertex 0.844204 -0.550523 -1.012408
vertex 0.719842 -0.702059 -1.012408
vertex 0.568305 -0.826422 -1.012408
endloop
endfacet
facet normal 0.000001 0.000000 -1.000000
outer loop
vertex 0.568305 -0.826422 -1.012408
vertex 0.395418 -0.918832 -1.012408
vertex 0.207825 -0.975738 -1.012408
endloop
endfacet
facet normal 0.000000 0.000000 -1.000000
outer loop
vertex 0.207825 -0.975738 -1.012408
vertex 0.012735 -0.994953 -1.012408
vertex -0.182355 -0.975738 -1.012408
endloop
endfacet
facet normal 0.000000 0.000000 -1.000000
outer loop
vertex -0.182355 -0.975738 -1.012408
vertex -0.369949 -0.918832 -1.012408
vertex -0.542835 -0.826422 -1.012408
endloop
endfacet
facet normal 0.000000 0.000000 -1.000000
outer loop
vertex -0.542835 -0.826422 -1.012408
vertex -0.694372 -0.702059 -1.012408
vertex -0.818735 -0.550523 -1.012408
endloop
endfacet
facet normal 0.000000 0.000000 -1.000000
outer loop
vertex -0.818735 -0.550523 -1.012408
vertex -0.911145 -0.377636 -1.012408
vertex -0.968050 -0.190043 -1.012408
endloop
endfacet
facet normal 0.000000 0.000000 -1.000000
outer loop
vertex -0.968050 -0.190043 -1.012408
vertex -0.987265 0.005047 -1.012408
vertex -0.968050 0.200138 -1.012408
endloop
endfacet
facet normal -0.000004 0.000000 -1.000000
outer loop
vertex -0.968050 0.200138 -1.012408
vertex -0.911145 0.387731 -1.012408
vertex -0.818735 0.560618 -1.012408
endloop
endfacet
facet normal 0.000000 0.000000 -1.000000
outer loop
vertex -0.818735 0.560618 -1.012408
vertex -0.694372 0.712154 -1.012408
vertex -0.542835 0.836517 -1.012408
endloop
endfacet
facet normal -0.000001 0.000000 -1.000000
outer loop
vertex -0.542835 0.836517 -1.012408
vertex -0.369949 0.928927 -1.012408
vertex -0.182355 0.985833 -1.012408
endloop
endfacet
facet normal 0.000000 0.000000 -1.000000
outer loop
vertex -0.182355 0.985833 -1.012408
vertex 0.207825 0.985833 -1.012408
vertex 0.568305 0.836517 -1.012408
endloop
endfacet
facet normal 0.000000 0.000000 -1.000000
outer loop
vertex 0.568305 0.836517 -1.012408
vertex 0.844204 0.560618 -1.012408
vertex 0.993520 0.200138 -1.012408
endloop
endfacet
facet normal 0.000001 0.000000 -1.000000
outer loop
vertex 0.993520 0.200138 -1.012408
vertex 0.993520 -0.190043 -1.012408
vertex 0.844204 -0.550523 -1.012408
endloop
endfacet
facet normal 0.000000 0.000000 -1.000000
outer loop
vertex 0.844204 -0.550523 -1.012408
vertex 0.568305 -0.826422 -1.012408
vertex 0.207825 -0.975738 -1.012408
endloop
endfacet
facet normal 0.000000 0.000000 -1.000000
outer loop
vertex 0.207825 -0.975738 -1.012408
vertex -0.182355 -0.975738 -1.012408
vertex -0.542835 -0.826422 -1.012408
endloop
endfacet
facet normal 0.000000 0.000000 -1.000000
outer loop
vertex -0.542835 -0.826422 -1.012408
vertex -0.818735 -0.550523 -1.012408
vertex -0.968050 -0.190043 -1.012408
endloop
endfacet
facet normal -0.000001 0.000000 -1.000000
outer loop
vertex -0.968050 -0.190043 -1.012408
vertex -0.968050 0.200138 -1.012408
vertex -0.818735 0.560618 -1.012408
endloop
endfacet
facet normal 0.000000 0.000000 -1.000000
outer loop
vertex -0.818735 0.560618 -1.012408
vertex -0.542835 0.836517 -1.012408
vertex -0.182355 0.985833 -1.012408
endloop
endfacet
facet normal 0.000000 0.000000 -1.000000
outer loop
vertex -0.182355 0.985833 -1.012408
vertex 0.568305 0.836517 -1.012408
vertex 0.993520 0.200138 -1.012408
endloop
endfacet
facet normal 0.000000 0.000000 -1.000000
outer loop
vertex 0.993520 0.200138 -1.012408
vertex 0.844204 -0.550523 -1.012408
vertex 0.207825 -0.975738 -1.012408
endloop
endfacet
facet normal 0.000000 0.000000 -1.000000
outer loop
vertex 0.207825 -0.975738 -1.012408
vertex -0.542835 -0.826422 -1.012408
vertex -0.968050 -0.190043 -1.012408
endloop
endfacet
facet normal -0.000000 0.000000 -1.000000
outer loop
vertex -0.968050 -0.190043 -1.012408
vertex -0.818735 0.560618 -1.012408
vertex -0.182355 0.985833 -1.012408
endloop
endfacet
facet normal -0.000000 0.000000 -1.000000
outer loop
vertex -0.182355 0.985833 -1.012408
vertex 0.993520 0.200138 -1.012408
vertex 0.207825 -0.975738 -1.012408
endloop
endfacet
facet normal 0.000000 0.000000 -1.000000
outer loop
vertex 0.207825 -0.975738 -1.012408
vertex -0.968050 -0.190043 -1.012408
vertex -0.182355 0.985833 -1.012408
endloop
endfacet
endsolid Exported from Blender-4.0.2
