solid Exported from Blender-4.0.2
facet normal 1.000000 0.000000 0.000000
outer loop
vertex 7.498064 -1.000000 -1.000000
vertex 7.498064 1.000000 -1.000000
vertex 7.498064 1.000000 1.000000
endloop
endfacet
facet normal 1.000000 0.000000 0.000000
outer loop
vertex 7.498064 -1.000000 -1.000000
vertex 7.498064 1.000000 1.000000
vertex 7.498064 -1.000000 1.000000
endloop
endfacet
facet normal 0.000000 1.000000 0.000000
outer loop
vertex 7.498064 1.000000 1.000000
vertex 7.498064 1.000000 -1.000000
vertex -7.498064 1.000000 -1.000000
endloop
endfacet
facet normal 0.000000 1.000000 0.000000
outer loop
vertex -7.498064 1.000000 -1.000000
vertex -7.498064 1.000000 1.000000
vertex 2.621150 1.000000 1.000000
endloop
endfacet
facet normal 0.000000 1.000000 0.000000
outer loop
vertex 4.411432 1.000000 1.000000
vertex 7.498064 1.000000 1.000000
vertex -7.498064 1.000000 -1.000000
endloop
endfacet
facet normal 0.000000 1.000000 0.000000
outer loop
vertex -7.498064 1.000000 -1.000000
vertex 2.621150 1.000000 1.000000
vertex 4.411432 1.000000 1.000000
endloop
endfacet
facet normal -1.000000 0.000000 0.000000
outer loop
vertex -7.498064 1.000000 -1.000000
vertex -7.498064 -1.000000 -1.000000
vertex -7.498064 -1.000000 1.000000
endloop
endfacet
facet normal -1.000000 0.000000 0.000000
outer loop
vertex -7.498064 1.000000 -1.000000
vertex -7.498064 -1.000000 1.000000
vertex -7.498064 1.000000 1.000000
endloop
endfacet
facet normal 0.000000 -1.000000 0.000000
outer loop
vertex -7.498064 -1.000000 -1.000000
vertex -5.691627 -1.000000 -1.000000
vertex -5.659970 -1.000000 1.000000
endloop
endfacet
facet normal 0.000000 -1.000000 0.000000
outer loop
vertex -7.498064 -1.000000 -1.000000
vertex -5.659970 -1.000000 1.000000
vertex -7.498064 -1.000000 1.000000
endloop
endfacet
facet normal 0.000000 0.000000 -1.000000
outer loop
vertex -7.498064 1.000000 -1.000000
vertex 7.498064 1.000000 -1.000000
vertex 7.498064 -1.000000 -1.000000
endloop
endfacet
facet normal 0.000000 0.000000 -1.000000
outer loop
vertex -7.498064 1.000000 -1.000000
vertex 7.498064 -1.000000 -1.000000
vertex -4.034801 -1.000000 -1.000000
endloop
endfacet
facet normal 0.000000 0.000000 -1.000000
outer loop
vertex -5.691627 -1.000000 -1.000000
vertex -7.498064 -1.000000 -1.000000
vertex -7.498064 1.000000 -1.000000
endloop
endfacet
facet normal 0.000000 0.000000 -1.000000
outer loop
vertex -4.034801 -1.000000 -1.000000
vertex -5.691627 -1.000000 -1.000000
vertex -7.498064 1.000000 -1.000000
endloop
endfacet
facet normal 0.000000 0.000000 1.000000
outer loop
vertex 2.621150 1.000000 1.000000
vertex -7.498064 1.000000 1.000000
vertex -7.498064 -1.000000 1.000000
endloop
endfacet
facet normal 0.000000 0.000000 1.000000
outer loop
vertex 2.621150 1.000000 1.000000
vertex -7.498064 -1.000000 1.000000
vertex -5.659970 -1.000000 1.000000
endloop
endfacet
facet normal 0.000000 0.000000 1.000000
outer loop
vertex -4.261806 -1.000000 1.000000
vertex 2.535930 -1.000000 1.000000
vertex 2.621150 1.000000 1.000000
endloop
endfacet
facet normal 0.000000 0.000000 1.000000
outer loop
vertex -5.659970 -1.000000 1.000000
vertex -4.261806 -1.000000 1.000000
vertex 2.621150 1.000000 1.000000
endloop
endfacet
facet normal 0.000000 -1.000000 0.000000
outer loop
vertex -5.691627 -5.089386 -1.000000
vertex -4.916497 -5.089386 0.084233
vertex -5.659970 -5.089386 1.000000
endloop
endfacet
facet normal 0.993620 0.000000 0.112778
outer loop
vertex -4.261806 -1.000000 1.000000
vertex -4.261806 -5.089386 1.000000
vertex -4.034801 -5.089386 -1.000000
endloop
endfacet
facet normal 0.993620 0.000000 0.112778
outer loop
vertex -4.261806 -1.000000 1.000000
vertex -4.034801 -5.089386 -1.000000
vertex -4.034801 -1.000000 -1.000000
endloop
endfacet
facet normal -0.999875 0.000000 0.015826
outer loop
vertex -5.691627 -1.000000 -1.000000
vertex -5.691627 -5.089386 -1.000000
vertex -5.659970 -5.089386 1.000000
endloop
endfacet
facet normal -0.999875 0.000000 0.015826
outer loop
vertex -5.691627 -1.000000 -1.000000
vertex -5.659970 -5.089386 1.000000
vertex -5.659970 -1.000000 1.000000
endloop
endfacet
facet normal 0.000000 -1.000000 0.000000
outer loop
vertex 2.535930 -1.000000 1.000000
vertex -4.261806 -1.000000 1.000000
vertex -4.034801 -1.000000 -1.000000
endloop
endfacet
facet normal 0.000000 -1.000000 0.000000
outer loop
vertex -4.034801 -1.000000 -1.000000
vertex 7.498064 -1.000000 -1.000000
vertex 7.498064 -1.000000 1.000000
endloop
endfacet
facet normal 0.000000 -1.000000 0.000000
outer loop
vertex 4.355585 -1.000000 1.000000
vertex 2.535930 -1.000000 1.000000
vertex -4.034801 -1.000000 -1.000000
endloop
endfacet
facet normal 0.000000 -1.000000 -0.000000
outer loop
vertex -4.034801 -1.000000 -1.000000
vertex 7.498064 -1.000000 1.000000
vertex 4.355585 -1.000000 1.000000
endloop
endfacet
facet normal 0.000000 0.000000 1.000000
outer loop
vertex -5.659970 -1.000000 1.000000
vertex -5.659970 -5.089386 1.000000
vertex -4.261806 -5.089386 1.000000
endloop
endfacet
facet normal 0.000000 0.000000 1.000000
outer loop
vertex -5.659970 -1.000000 1.000000
vertex -4.261806 -5.089386 1.000000
vertex -4.261806 -1.000000 1.000000
endloop
endfacet
facet normal 0.000000 0.000000 -1.000000
outer loop
vertex -4.034801 -1.000000 -1.000000
vertex -4.034801 -5.089386 -1.000000
vertex -5.691627 -5.089386 -1.000000
endloop
endfacet
facet normal 0.000000 0.000000 -1.000000
outer loop
vertex -4.034801 -1.000000 -1.000000
vertex -5.691627 -5.089386 -1.000000
vertex -5.691627 -1.000000 -1.000000
endloop
endfacet
facet normal 0.000000 -1.000000 0.000000
outer loop
vertex -4.916497 -5.089386 0.084233
vertex -4.261806 -5.089386 1.000000
vertex -5.659970 -5.089386 1.000000
endloop
endfacet
facet normal 0.000000 -1.000000 0.000000
outer loop
vertex -4.034801 -5.089386 -1.000000
vertex -4.916497 -5.089386 0.084233
vertex -5.691627 -5.089386 -1.000000
endloop
endfacet
facet normal 0.000000 -1.000000 0.000000
outer loop
vertex -4.034801 -5.089386 -1.000000
vertex -4.261806 -5.089386 1.000000
vertex -4.916497 -5.089386 0.084233
endloop
endfacet
facet normal 0.000000 0.000000 1.000000
outer loop
vertex 2.535930 -1.000000 5.460980
vertex 4.411432 1.000000 5.460980
vertex 2.621150 1.000000 5.460980
endloop
endfacet
facet normal 0.000000 -1.000000 0.000000
outer loop
vertex 4.355585 -1.000000 1.000000
vertex 4.355585 -1.000000 5.460980
vertex 2.535930 -1.000000 5.460980
endloop
endfacet
facet normal 0.000000 -1.000000 0.000000
outer loop
vertex 4.355585 -1.000000 1.000000
vertex 2.535930 -1.000000 5.460980
vertex 2.535930 -1.000000 1.000000
endloop
endfacet
facet normal 0.000000 0.000000 1.000000
outer loop
vertex 4.411432 1.000000 1.000000
vertex 4.355585 -1.000000 1.000000
vertex 7.498064 -1.000000 1.000000
endloop
endfacet
facet normal 0.000000 0.000000 1.000000
outer loop
vertex 4.411432 1.000000 1.000000
vertex 7.498064 -1.000000 1.000000
vertex 7.498064 1.000000 1.000000
endloop
endfacet
facet normal 0.000000 1.000000 0.000000
outer loop
vertex 2.621150 1.000000 1.000000
vertex 2.621150 1.000000 5.460980
vertex 4.411432 1.000000 5.460980
endloop
endfacet
facet normal 0.000000 1.000000 0.000000
outer loop
vertex 2.621150 1.000000 1.000000
vertex 4.411432 1.000000 5.460980
vertex 4.411432 1.000000 1.000000
endloop
endfacet
facet normal 0.000000 0.000000 1.000000
outer loop
vertex 4.355585 -1.000000 5.460980
vertex 4.411432 1.000000 5.460980
vertex 2.535930 -1.000000 5.460980
endloop
endfacet
facet normal 0.999610 -0.027913 0.000000
outer loop
vertex 4.411432 1.000000 1.000000
vertex 4.411432 1.000000 5.460980
vertex 4.355585 -1.000000 5.460980
endloop
endfacet
facet normal 0.999610 -0.027913 0.000000
outer loop
vertex 4.411432 1.000000 1.000000
vertex 4.355585 -1.000000 5.460980
vertex 4.355585 -1.000000 1.000000
endloop
endfacet
facet normal -0.999093 0.042571 0.000000
outer loop
vertex 2.535930 -1.000000 1.000000
vertex 2.535930 -1.000000 5.460980
vertex 2.621150 1.000000 5.460980
endloop
endfacet
facet normal -0.999093 0.042571 0.000000
outer loop
vertex 2.535930 -1.000000 1.000000
vertex 2.621150 1.000000 5.460980
vertex 2.621150 1.000000 1.000000
endloop
endfacet
endsolid Exported from Blender-4.0.2
