solid Exported from Blender-4.0.2
facet normal -1.000000 0.000000 0.000000
outer loop
vertex -4.501371 -1.000000 -1.000000
vertex -4.501371 -1.000000 1.000000
vertex -4.501371 1.000000 1.000000
endloop
endfacet
facet normal -1.000000 0.000000 0.000000
outer loop
vertex -4.501371 -1.000000 -1.000000
vertex -4.501371 1.000000 1.000000
vertex -4.501371 1.000000 -1.000000
endloop
endfacet
facet normal 0.000000 1.000000 0.000000
outer loop
vertex 0.000000 1.000000 -1.000000
vertex 0.000000 1.000000 1.000000
vertex 4.501371 1.000000 1.000000
endloop
endfacet
facet normal 0.000000 1.000000 0.000000
outer loop
vertex 0.000000 1.000000 -1.000000
vertex 4.501371 1.000000 1.000000
vertex 4.501371 1.000000 -1.000000
endloop
endfacet
facet normal 1.000000 0.000000 0.000000
outer loop
vertex 4.501371 1.000000 -1.000000
vertex 4.501371 1.000000 1.000000
vertex 4.501371 -1.000000 1.000000
endloop
endfacet
facet normal 1.000000 0.000000 0.000000
outer loop
vertex 4.501371 1.000000 -1.000000
vertex 4.501371 -1.000000 1.000000
vertex 4.501371 -1.000000 -1.000000
endloop
endfacet
facet normal 1.000000 0.000000 0.000000
outer loop
vertex -2.250686 -1.000000 -1.000000
vertex -2.250686 -1.000000 1.000000
vertex -2.250686 -4.299513 1.000000
endloop
endfacet
facet normal 1.000000 0.000000 0.000000
outer loop
vertex -2.250686 -1.000000 -1.000000
vertex -2.250686 -4.299513 1.000000
vertex -2.250686 -4.299513 -1.000000
endloop
endfacet
facet normal 0.000000 0.000000 -1.000000
outer loop
vertex 0.000000 1.000000 -1.000000
vertex 4.501371 1.000000 -1.000000
vertex 4.501371 -1.000000 -1.000000
endloop
endfacet
facet normal 0.000000 0.000000 -1.000000
outer loop
vertex 0.000000 1.000000 -1.000000
vertex 4.501371 -1.000000 -1.000000
vertex 0.000000 -1.000000 -1.000000
endloop
endfacet
facet normal 0.000000 0.000000 1.000000
outer loop
vertex -2.250686 1.000000 1.000000
vertex -4.501371 1.000000 1.000000
vertex -4.501371 -1.000000 1.000000
endloop
endfacet
facet normal 0.000000 0.000000 1.000000
outer loop
vertex -2.250686 1.000000 1.000000
vertex -4.501371 -1.000000 1.000000
vertex -2.250686 -1.000000 1.000000
endloop
endfacet
facet normal 0.000000 0.000000 1.000000
outer loop
vertex 4.501371 1.000000 1.000000
vertex 0.000000 1.000000 1.000000
vertex 0.000000 -1.000000 1.000000
endloop
endfacet
facet normal 0.000000 0.000000 1.000000
outer loop
vertex 4.501371 1.000000 1.000000
vertex 0.000000 -1.000000 1.000000
vertex 4.501371 -1.000000 1.000000
endloop
endfacet
facet normal 0.000000 0.000000 -1.000000
outer loop
vertex -2.250686 1.000000 -1.000000
vertex 0.000000 1.000000 -1.000000
vertex 0.000000 -1.000000 -1.000000
endloop
endfacet
facet normal 0.000000 0.000000 -1.000000
outer loop
vertex -2.250686 1.000000 -1.000000
vertex 0.000000 -1.000000 -1.000000
vertex -2.250686 -1.000000 -1.000000
endloop
endfacet
facet normal 0.000000 -1.000000 0.000000
outer loop
vertex 4.501371 -1.000000 -1.000000
vertex 4.501371 -1.000000 1.000000
vertex 0.000000 -1.000000 1.000000
endloop
endfacet
facet normal 0.000000 -1.000000 0.000000
outer loop
vertex 4.501371 -1.000000 -1.000000
vertex 0.000000 -1.000000 1.000000
vertex 0.000000 -1.000000 -1.000000
endloop
endfacet
facet normal 0.000000 1.000000 0.000000
outer loop
vertex -2.250686 1.000000 -1.000000
vertex -2.250686 1.000000 1.000000
vertex 0.000000 1.000000 1.000000
endloop
endfacet
facet normal 0.000000 1.000000 0.000000
outer loop
vertex -2.250686 1.000000 -1.000000
vertex 0.000000 1.000000 1.000000
vertex 0.000000 1.000000 -1.000000
endloop
endfacet
facet normal 0.000000 1.000000 0.000000
outer loop
vertex -4.501371 1.000000 -1.000000
vertex -4.501371 1.000000 1.000000
vertex -2.250686 1.000000 1.000000
endloop
endfacet
facet normal 0.000000 1.000000 0.000000
outer loop
vertex -4.501371 1.000000 -1.000000
vertex -2.250686 1.000000 1.000000
vertex -2.250686 1.000000 -1.000000
endloop
endfacet
facet normal 0.000000 0.000000 -1.000000
outer loop
vertex -4.501371 1.000000 -1.000000
vertex -2.250686 1.000000 -1.000000
vertex -2.250686 -1.000000 -1.000000
endloop
endfacet
facet normal 0.000000 0.000000 -1.000000
outer loop
vertex -4.501371 1.000000 -1.000000
vertex -2.250686 -1.000000 -1.000000
vertex -4.501371 -1.000000 -1.000000
endloop
endfacet
facet normal 0.000000 0.000000 1.000000
outer loop
vertex 0.000000 1.000000 1.000000
vertex -2.250686 1.000000 1.000000
vertex -2.250686 -1.000000 1.000000
endloop
endfacet
facet normal 0.000000 0.000000 1.000000
outer loop
vertex 0.000000 1.000000 1.000000
vertex -2.250686 -1.000000 1.000000
vertex 0.000000 -1.000000 1.000000
endloop
endfacet
facet normal 0.000000 -1.000000 0.000000
outer loop
vertex 0.000000 -1.000000 -1.000000
vertex 0.000000 -1.000000 1.000000
vertex -2.250686 -1.000000 1.000000
endloop
endfacet
facet normal 0.000000 -1.000000 0.000000
outer loop
vertex 0.000000 -1.000000 -1.000000
vertex -2.250686 -1.000000 1.000000
vertex -2.250686 -1.000000 -1.000000
endloop
endfacet
facet normal 0.000000 0.000000 -1.000000
outer loop
vertex -4.501371 -4.299513 -1.000000
vertex -2.250686 -4.299513 -1.000000
vertex -2.250686 -7.042681 -1.000000
endloop
endfacet
facet normal 0.000000 0.000000 -1.000000
outer loop
vertex -4.501371 -4.299513 -1.000000
vertex -2.250686 -7.042681 -1.000000
vertex -4.501371 -7.042681 -1.000000
endloop
endfacet
facet normal 0.000000 1.000000 0.000000
outer loop
vertex -4.501371 -1.000000 1.000000
vertex -4.501371 -1.000000 -1.000000
vertex -8.490143 -1.000000 -1.000000
endloop
endfacet
facet normal 0.000000 1.000000 0.000000
outer loop
vertex -4.501371 -1.000000 1.000000
vertex -8.490143 -1.000000 -1.000000
vertex -8.490143 -1.000000 1.000000
endloop
endfacet
facet normal 0.000000 0.000000 -1.000000
outer loop
vertex -4.501371 -1.000000 -1.000000
vertex -2.250686 -1.000000 -1.000000
vertex -2.250686 -4.299513 -1.000000
endloop
endfacet
facet normal 0.000000 0.000000 -1.000000
outer loop
vertex -4.501371 -1.000000 -1.000000
vertex -2.250686 -4.299513 -1.000000
vertex -4.501371 -4.299513 -1.000000
endloop
endfacet
facet normal 0.000000 0.000000 1.000000
outer loop
vertex -2.250686 -1.000000 1.000000
vertex -4.501371 -1.000000 1.000000
vertex -4.501371 -4.299513 1.000000
endloop
endfacet
facet normal 0.000000 0.000000 1.000000
outer loop
vertex -2.250686 -1.000000 1.000000
vertex -4.501371 -4.299513 1.000000
vertex -2.250686 -4.299513 1.000000
endloop
endfacet
facet normal 0.000000 -1.000000 0.000000
outer loop
vertex -2.250686 -7.042681 -1.000000
vertex -2.250686 -7.042681 1.000000
vertex -4.501371 -7.042681 1.000000
endloop
endfacet
facet normal 0.000000 -1.000000 0.000000
outer loop
vertex -2.250686 -7.042681 -1.000000
vertex -4.501371 -7.042681 1.000000
vertex -4.501371 -7.042681 -1.000000
endloop
endfacet
facet normal -1.000000 0.000000 0.000000
outer loop
vertex -4.501371 -4.299513 1.000000
vertex -4.501371 -4.299513 -1.000000
vertex -4.501371 -7.042681 -1.000000
endloop
endfacet
facet normal -1.000000 0.000000 0.000000
outer loop
vertex -4.501371 -4.299513 1.000000
vertex -4.501371 -7.042681 -1.000000
vertex -4.501371 -7.042681 1.000000
endloop
endfacet
facet normal 0.000000 0.000000 -1.000000
outer loop
vertex -0.084921 -7.042681 -1.000000
vertex -0.084921 -4.299513 -1.000000
vertex 2.080843 -4.299513 -1.000000
endloop
endfacet
facet normal 0.000000 0.000000 -1.000000
outer loop
vertex -0.084921 -7.042681 -1.000000
vertex 2.080843 -4.299513 -1.000000
vertex 2.080843 -7.042681 -1.000000
endloop
endfacet
facet normal 0.000000 0.000000 1.000000
outer loop
vertex -2.250686 -4.299513 1.000000
vertex -4.501371 -4.299513 1.000000
vertex -4.501371 -7.042681 1.000000
endloop
endfacet
facet normal 0.000000 0.000000 1.000000
outer loop
vertex -2.250686 -4.299513 1.000000
vertex -4.501371 -7.042681 1.000000
vertex -2.250686 -7.042681 1.000000
endloop
endfacet
facet normal 0.000000 0.000000 1.000000
outer loop
vertex 2.080843 -4.299513 1.000000
vertex 2.080843 -7.042681 1.000000
vertex 6.462480 -7.042681 1.000000
endloop
endfacet
facet normal 0.000000 0.000000 1.000000
outer loop
vertex 2.080843 -4.299513 1.000000
vertex 6.462480 -7.042681 1.000000
vertex 6.462480 -4.299513 1.000000
endloop
endfacet
facet normal 0.000000 0.000000 1.000000
outer loop
vertex -0.084921 -4.299513 1.000000
vertex -0.084921 -7.042681 1.000000
vertex 2.080843 -7.042681 1.000000
endloop
endfacet
facet normal 0.000000 0.000000 1.000000
outer loop
vertex -0.084921 -4.299513 1.000000
vertex 2.080843 -7.042681 1.000000
vertex 2.080843 -4.299513 1.000000
endloop
endfacet
facet normal 0.000000 -1.000000 0.000000
outer loop
vertex -0.084921 -7.042681 1.000000
vertex -0.084921 -7.042681 -1.000000
vertex 2.080843 -7.042681 -1.000000
endloop
endfacet
facet normal 0.000000 -1.000000 0.000000
outer loop
vertex -0.084921 -7.042681 1.000000
vertex 2.080843 -7.042681 -1.000000
vertex 2.080843 -7.042681 1.000000
endloop
endfacet
facet normal 0.000000 0.000000 1.000000
outer loop
vertex -0.084921 -4.299513 1.000000
vertex 2.080843 -4.299513 1.000000
vertex 2.080843 4.394692 1.000000
endloop
endfacet
facet normal 0.000000 0.000000 1.000000
outer loop
vertex -0.084921 -4.299513 1.000000
vertex 2.080843 4.394692 1.000000
vertex -0.084921 4.394692 1.000000
endloop
endfacet
facet normal 1.000000 0.000000 0.000000
outer loop
vertex 6.462480 -4.299513 -1.000000
vertex 6.462480 -4.299513 1.000000
vertex 6.462480 -7.042681 1.000000
endloop
endfacet
facet normal 1.000000 0.000000 0.000000
outer loop
vertex 6.462480 -4.299513 -1.000000
vertex 6.462480 -7.042681 1.000000
vertex 6.462480 -7.042681 -1.000000
endloop
endfacet
facet normal 0.000000 -1.000000 0.000000
outer loop
vertex 2.080843 -7.042681 1.000000
vertex 2.080843 -7.042681 -1.000000
vertex 6.462480 -7.042681 -1.000000
endloop
endfacet
facet normal 0.000000 -1.000000 0.000000
outer loop
vertex 2.080843 -7.042681 1.000000
vertex 6.462480 -7.042681 -1.000000
vertex 6.462480 -7.042681 1.000000
endloop
endfacet
facet normal 0.000000 0.000000 -1.000000
outer loop
vertex 2.080843 -7.042681 -1.000000
vertex 2.080843 -4.299513 -1.000000
vertex 6.462480 -4.299513 -1.000000
endloop
endfacet
facet normal 0.000000 0.000000 -1.000000
outer loop
vertex 2.080843 -7.042681 -1.000000
vertex 6.462480 -4.299513 -1.000000
vertex 6.462480 -7.042681 -1.000000
endloop
endfacet
facet normal 0.000000 1.000000 0.000000
outer loop
vertex 2.080843 -4.299513 -1.000000
vertex 2.080843 -4.299513 1.000000
vertex 6.462480 -4.299513 1.000000
endloop
endfacet
facet normal 0.000000 1.000000 0.000000
outer loop
vertex 2.080843 -4.299513 -1.000000
vertex 6.462480 -4.299513 1.000000
vertex 6.462480 -4.299513 -1.000000
endloop
endfacet
facet normal 0.000000 1.000000 0.000000
outer loop
vertex -2.250686 -4.299513 -1.000000
vertex -2.250686 -4.299513 1.000000
vertex -0.084921 -4.299513 1.000000
endloop
endfacet
facet normal 0.000000 1.000000 0.000000
outer loop
vertex -2.250686 -4.299513 -1.000000
vertex -0.084921 -4.299513 1.000000
vertex -0.084921 -4.299513 -1.000000
endloop
endfacet
facet normal 0.000000 0.000000 1.000000
outer loop
vertex -0.084921 -7.042681 1.000000
vertex -2.250686 -7.042681 1.000000
vertex -2.250686 -10.473392 1.000000
endloop
endfacet
facet normal 0.000000 0.000000 1.000000
outer loop
vertex -0.084921 -7.042681 1.000000
vertex -2.250686 -10.473392 1.000000
vertex -0.084921 -10.473392 1.000000
endloop
endfacet
facet normal 0.000000 0.000000 1.000000
outer loop
vertex -2.250686 -4.299513 1.000000
vertex -2.250686 -7.042681 1.000000
vertex -0.084921 -7.042681 1.000000
endloop
endfacet
facet normal 0.000000 0.000000 1.000000
outer loop
vertex -2.250686 -4.299513 1.000000
vertex -0.084921 -7.042681 1.000000
vertex -0.084921 -4.299513 1.000000
endloop
endfacet
facet normal 0.000000 0.000000 -1.000000
outer loop
vertex -2.250686 -7.042681 -1.000000
vertex -2.250686 -4.299513 -1.000000
vertex -0.084921 -4.299513 -1.000000
endloop
endfacet
facet normal 0.000000 0.000000 -1.000000
outer loop
vertex -2.250686 -7.042681 -1.000000
vertex -0.084921 -4.299513 -1.000000
vertex -0.084921 -7.042681 -1.000000
endloop
endfacet
facet normal 0.000000 1.000000 0.000000
outer loop
vertex -0.084921 4.394692 -1.000000
vertex -0.084921 4.394692 1.000000
vertex 2.080843 4.394692 1.000000
endloop
endfacet
facet normal 0.000000 1.000000 0.000000
outer loop
vertex -0.084921 4.394692 -1.000000
vertex 2.080843 4.394692 1.000000
vertex 2.080843 4.394692 -1.000000
endloop
endfacet
facet normal 0.000000 0.000000 -1.000000
outer loop
vertex 2.080843 -4.299513 -1.000000
vertex -0.084921 -4.299513 -1.000000
vertex -0.084921 4.394692 -1.000000
endloop
endfacet
facet normal 0.000000 0.000000 -1.000000
outer loop
vertex 2.080843 -4.299513 -1.000000
vertex -0.084921 4.394692 -1.000000
vertex 2.080843 4.394692 -1.000000
endloop
endfacet
facet normal 1.000000 0.000000 0.000000
outer loop
vertex 2.080843 -4.299513 1.000000
vertex 2.080843 -4.299513 -1.000000
vertex 2.080843 4.394692 -1.000000
endloop
endfacet
facet normal 1.000000 0.000000 0.000000
outer loop
vertex 2.080843 -4.299513 1.000000
vertex 2.080843 4.394692 -1.000000
vertex 2.080843 4.394692 1.000000
endloop
endfacet
facet normal -1.000000 0.000000 0.000000
outer loop
vertex -0.084921 -4.299513 -1.000000
vertex -0.084921 -4.299513 1.000000
vertex -0.084921 4.394692 1.000000
endloop
endfacet
facet normal -1.000000 0.000000 0.000000
outer loop
vertex -0.084921 -4.299513 -1.000000
vertex -0.084921 4.394692 1.000000
vertex -0.084921 4.394692 -1.000000
endloop
endfacet
facet normal 0.000000 -1.000000 0.000000
outer loop
vertex -2.250686 -10.473392 1.000000
vertex -2.250686 -10.473392 -1.000000
vertex -0.084921 -10.473392 -1.000000
endloop
endfacet
facet normal 0.000000 -1.000000 0.000000
outer loop
vertex -2.250686 -10.473392 1.000000
vertex -0.084921 -10.473392 -1.000000
vertex -0.084921 -10.473392 1.000000
endloop
endfacet
facet normal 0.000000 0.000000 -1.000000
outer loop
vertex -2.250686 -7.042681 -1.000000
vertex -0.084921 -7.042681 -1.000000
vertex -0.084921 -10.473392 -1.000000
endloop
endfacet
facet normal 0.000000 0.000000 -1.000000
outer loop
vertex -2.250686 -7.042681 -1.000000
vertex -0.084921 -10.473392 -1.000000
vertex -2.250686 -10.473392 -1.000000
endloop
endfacet
facet normal 1.000000 0.000000 0.000000
outer loop
vertex -0.084921 -7.042681 -1.000000
vertex -0.084921 -7.042681 1.000000
vertex -0.084921 -10.473392 1.000000
endloop
endfacet
facet normal 1.000000 0.000000 0.000000
outer loop
vertex -0.084921 -7.042681 -1.000000
vertex -0.084921 -10.473392 1.000000
vertex -0.084921 -10.473392 -1.000000
endloop
endfacet
facet normal -1.000000 0.000000 0.000000
outer loop
vertex -2.250686 -7.042681 1.000000
vertex -2.250686 -7.042681 -1.000000
vertex -2.250686 -10.473392 -1.000000
endloop
endfacet
facet normal -1.000000 0.000000 0.000000
outer loop
vertex -2.250686 -7.042681 1.000000
vertex -2.250686 -10.473392 -1.000000
vertex -2.250686 -10.473392 1.000000
endloop
endfacet
facet normal -1.000000 0.000000 0.000000
outer loop
vertex -8.490143 -1.000000 1.000000
vertex -8.490143 -1.000000 -1.000000
vertex -8.490143 -4.299513 -1.000000
endloop
endfacet
facet normal -1.000000 0.000000 0.000000
outer loop
vertex -8.490143 -1.000000 1.000000
vertex -8.490143 -4.299513 -1.000000
vertex -8.490143 -4.299513 1.000000
endloop
endfacet
facet normal 0.000000 0.000000 -1.000000
outer loop
vertex -4.501371 -1.000000 -1.000000
vertex -4.501371 -4.299513 -1.000000
vertex -8.490143 -4.299513 -1.000000
endloop
endfacet
facet normal 0.000000 0.000000 -1.000000
outer loop
vertex -4.501371 -1.000000 -1.000000
vertex -8.490143 -4.299513 -1.000000
vertex -8.490143 -1.000000 -1.000000
endloop
endfacet
facet normal 0.000000 -1.000000 0.000000
outer loop
vertex -4.501371 -4.299513 -1.000000
vertex -4.501371 -4.299513 1.000000
vertex -8.490143 -4.299513 1.000000
endloop
endfacet
facet normal 0.000000 -1.000000 0.000000
outer loop
vertex -4.501371 -4.299513 -1.000000
vertex -8.490143 -4.299513 1.000000
vertex -8.490143 -4.299513 -1.000000
endloop
endfacet
facet normal 0.000000 0.000000 1.000000
outer loop
vertex -4.501371 -4.299513 1.000000
vertex -4.501371 -1.000000 1.000000
vertex -8.490143 -1.000000 1.000000
endloop
endfacet
facet normal 0.000000 0.000000 1.000000
outer loop
vertex -4.501371 -4.299513 1.000000
vertex -8.490143 -1.000000 1.000000
vertex -8.490143 -4.299513 1.000000
endloop
endfacet
endsolid Exported from Blender-4.0.2
