solid Exported from Blender-4.0.2
facet normal -0.013519 0.999909 0.000000
outer loop
vertex 1.091328 7.155901 -1.000000
vertex -0.908489 7.128863 -1.000000
vertex -0.908489 7.128863 1.000000
endloop
endfacet
facet normal -0.013519 0.999909 0.000000
outer loop
vertex 1.091328 7.155901 -1.000000
vertex -0.908489 7.128863 1.000000
vertex 1.091328 7.155901 1.000000
endloop
endfacet
facet normal -0.999909 -0.013519 0.000000
outer loop
vertex -0.908489 7.128863 -1.000000
vertex -0.720436 -6.779960 -1.000000
vertex -0.720436 -6.779960 1.000000
endloop
endfacet
facet normal -0.999909 -0.013519 0.000000
outer loop
vertex -0.908489 7.128863 -1.000000
vertex -0.720436 -6.779960 1.000000
vertex -0.908489 7.128863 1.000000
endloop
endfacet
facet normal 0.013519 -0.999909 0.000000
outer loop
vertex -0.720436 -6.779960 -1.000000
vertex 1.279381 -6.752922 -1.000000
vertex 1.279381 -6.752922 1.000000
endloop
endfacet
facet normal 0.013519 -0.999909 0.000000
outer loop
vertex -0.720436 -6.779960 -1.000000
vertex 1.279381 -6.752922 1.000000
vertex -0.720436 -6.779960 1.000000
endloop
endfacet
facet normal 0.999909 0.013519 0.000000
outer loop
vertex 1.279381 -6.752922 -1.000000
vertex 1.091328 7.155901 -1.000000
vertex 1.091328 7.155901 1.000000
endloop
endfacet
facet normal 0.999909 0.013519 0.000000
outer loop
vertex 1.279381 -6.752922 -1.000000
vertex 1.091328 7.155901 1.000000
vertex 1.279381 -6.752922 1.000000
endloop
endfacet
facet normal 0.000000 0.000000 -1.000000
outer loop
vertex -0.908489 7.128863 -1.000000
vertex 1.091328 7.155901 -1.000000
vertex 1.279381 -6.752922 -1.000000
endloop
endfacet
facet normal 0.000000 0.000000 -1.000000
outer loop
vertex -0.908489 7.128863 -1.000000
vertex 1.279381 -6.752922 -1.000000
vertex -0.720436 -6.779960 -1.000000
endloop
endfacet
facet normal 0.000000 0.000000 1.000000
outer loop
vertex -0.720436 -6.779960 1.000000
vertex 1.279381 -6.752922 1.000000
vertex 1.091328 7.155901 1.000000
endloop
endfacet
facet normal 0.000000 0.000000 1.000000
outer loop
vertex -0.720436 -6.779960 1.000000
vertex 1.091328 7.155901 1.000000
vertex -0.908489 7.128863 1.000000
endloop
endfacet
facet normal -0.013519 0.999909 0.000000
outer loop
vertex -5.516650 7.066559 -1.000000
vertex -7.516468 7.039520 -1.000000
vertex -7.516468 7.039520 1.000000
endloop
endfacet
facet normal -0.013519 0.999909 0.000000
outer loop
vertex -5.516650 7.066559 -1.000000
vertex -7.516468 7.039520 1.000000
vertex -5.516650 7.066559 1.000000
endloop
endfacet
facet normal -0.999909 -0.013519 0.000000
outer loop
vertex -7.516468 7.039520 -1.000000
vertex -7.328415 -6.869303 -1.000000
vertex -7.328415 -6.869303 1.000000
endloop
endfacet
facet normal -0.999909 -0.013519 0.000000
outer loop
vertex -7.516468 7.039520 -1.000000
vertex -7.328415 -6.869303 1.000000
vertex -7.516468 7.039520 1.000000
endloop
endfacet
facet normal 0.013519 -0.999909 0.000000
outer loop
vertex -7.328415 -6.869303 -1.000000
vertex -5.328598 -6.842264 -1.000000
vertex -5.328598 -6.842264 1.000000
endloop
endfacet
facet normal 0.013519 -0.999909 0.000000
outer loop
vertex -7.328415 -6.869303 -1.000000
vertex -5.328598 -6.842264 1.000000
vertex -7.328415 -6.869303 1.000000
endloop
endfacet
facet normal 0.999909 0.013519 0.000000
outer loop
vertex -5.328598 -6.842264 -1.000000
vertex -5.516650 7.066559 -1.000000
vertex -5.516650 7.066559 1.000000
endloop
endfacet
facet normal 0.999909 0.013519 0.000000
outer loop
vertex -5.328598 -6.842264 -1.000000
vertex -5.516650 7.066559 1.000000
vertex -5.328598 -6.842264 1.000000
endloop
endfacet
facet normal 0.000000 0.000000 -1.000000
outer loop
vertex -7.516468 7.039520 -1.000000
vertex -5.516650 7.066559 -1.000000
vertex -5.328598 -6.842264 -1.000000
endloop
endfacet
facet normal 0.000000 0.000000 -1.000000
outer loop
vertex -7.516468 7.039520 -1.000000
vertex -5.328598 -6.842264 -1.000000
vertex -7.328415 -6.869303 -1.000000
endloop
endfacet
facet normal 0.000000 0.000000 1.000000
outer loop
vertex -7.328415 -6.869303 1.000000
vertex -5.328598 -6.842264 1.000000
vertex -5.516650 7.066559 1.000000
endloop
endfacet
facet normal 0.000000 0.000000 1.000000
outer loop
vertex -7.328415 -6.869303 1.000000
vertex -5.516650 7.066559 1.000000
vertex -7.516468 7.039520 1.000000
endloop
endfacet
facet normal -0.013519 0.999909 0.000000
outer loop
vertex 7.142969 7.237722 -1.000000
vertex 5.143151 7.210683 -1.000000
vertex 5.143151 7.210683 1.000000
endloop
endfacet
facet normal -0.013519 0.999909 0.000000
outer loop
vertex 7.142969 7.237722 -1.000000
vertex 5.143151 7.210683 1.000000
vertex 7.142969 7.237722 1.000000
endloop
endfacet
facet normal -0.999909 -0.013519 0.000000
outer loop
vertex 5.143151 7.210683 -1.000000
vertex 5.331204 -6.698140 -1.000000
vertex 5.331204 -6.698140 1.000000
endloop
endfacet
facet normal -0.999909 -0.013519 0.000000
outer loop
vertex 5.143151 7.210683 -1.000000
vertex 5.331204 -6.698140 1.000000
vertex 5.143151 7.210683 1.000000
endloop
endfacet
facet normal 0.013519 -0.999909 0.000000
outer loop
vertex 5.331204 -6.698140 -1.000000
vertex 7.331021 -6.671101 -1.000000
vertex 7.331021 -6.671101 1.000000
endloop
endfacet
facet normal 0.013519 -0.999909 0.000000
outer loop
vertex 5.331204 -6.698140 -1.000000
vertex 7.331021 -6.671101 1.000000
vertex 5.331204 -6.698140 1.000000
endloop
endfacet
facet normal 0.999909 0.013519 0.000000
outer loop
vertex 7.331021 -6.671101 -1.000000
vertex 7.142969 7.237722 -1.000000
vertex 7.142969 7.237722 1.000000
endloop
endfacet
facet normal 0.999909 0.013519 0.000000
outer loop
vertex 7.331021 -6.671101 -1.000000
vertex 7.142969 7.237722 1.000000
vertex 7.331021 -6.671101 1.000000
endloop
endfacet
facet normal 0.000000 0.000000 -1.000000
outer loop
vertex 5.143151 7.210683 -1.000000
vertex 7.142969 7.237722 -1.000000
vertex 7.331021 -6.671101 -1.000000
endloop
endfacet
facet normal 0.000000 0.000000 -1.000000
outer loop
vertex 5.143151 7.210683 -1.000000
vertex 7.331021 -6.671101 -1.000000
vertex 5.331204 -6.698140 -1.000000
endloop
endfacet
facet normal 0.000000 0.000000 1.000000
outer loop
vertex 5.331204 -6.698140 1.000000
vertex 7.331021 -6.671101 1.000000
vertex 7.142969 7.237722 1.000000
endloop
endfacet
facet normal 0.000000 0.000000 1.000000
outer loop
vertex 5.331204 -6.698140 1.000000
vertex 7.142969 7.237722 1.000000
vertex 5.143151 7.210683 1.000000
endloop
endfacet
endsolid Exported from Blender-4.0.2
